<?xml version="1.0" encoding="UTF-8"?>
<svg id="Layer_2" data-name="Layer 2" xmlns="http://www.w3.org/2000/svg" viewBox="0 0 268.33 283.58">
  <defs>
    <style>
      .cls-1 {
        stroke-width: 4.95px;
      }

      .cls-1, .cls-2, .cls-3 {
        fill: none;
        stroke: #231f20;
        stroke-linecap: round;
        stroke-linejoin: round;
      }

      .cls-2 {
        stroke-width: 6.43px;
      }

      .cls-3 {
        stroke-width: 5.53px;
      }
    </style>
  </defs>
  <g id="Layer_1-2" data-name="Layer 1">
    <g>
      <path class="cls-2" d="m142.49,265.02c-3.84.29-4.27.24-8.11.19"/>
      <path class="cls-2" d="m88.54,256.92c-22.62-8.38-43.2-23.11-58.83-43.79C-13.9,155.44-2.49,73.33,55.2,29.71,112.89-13.9,195-2.49,238.61,55.2c43.61,57.69,32.2,139.8-25.48,183.42-9.27,7.01-18.44,12.29-28.71,16.49"/>
      <path class="cls-3" d="m69.04,100.29c-3.55,0-25.32,19.55-34.21,23.55-8.89,4-15.11-11.55,1.78-39.1,16.88-27.55,40.43-34.65,51.98-34.65s8.44,11.55,24.44,9.77c15.99-1.78,33.77,4,35.54,3.11.89-.44,25.32-3.11,41.76,5.33s14.22-9.77,31.54,3.55c17.33,13.33,13.77,43.98,12,61.76-1.78,17.77,8,24.88,4.89,31.54-3.11,6.66-29.77,5.78-31.54-8.44"/>
      <path class="cls-3" d="m51.27,80.74s25.77-22.21,30.66-17.77c4.89,4.44-2.22,9.33-5.78,16.88-3.55,7.55-9.33,39.54-11.11,52.87-1.78,13.33-8.89,24.44-.44,41.76,8.44,17.33,19.55,40.43,20.88,54.2,1.33,13.77.89,42.21,22.21,43.1s26.66-7.11,30.66-13.33"/>
      <path class="cls-3" d="m224.09,96.29s-.44-16.44-12.88-18.22c-12.44-1.78-13.33.89-8.44,7.55s12,11.11,10.22,28.88c-1.78,17.77-5.33,19.55-6.66,28.43-1.33,8.89,2.22,25.32-1.78,34.21-4,8.89-17.77,14.66-21.77,28.88-4,14.22-10.66,19.55-10.66,19.55"/>
      <path class="cls-3" d="m148.57,62.97s-2.67,22.66-3.55,28.43"/>
      <path class="cls-3" d="m82.37,99.84s7.55-14.22,20.88-8.44c13.33,5.78,12,19.55,12,19.55,0,0-26.66,1.78-32.88-11.11Z"/>
      <path class="cls-3" d="m161.01,114.5c-2.11-2.11,25.77-26.66,37.32,3.11,0,0-21.77,12.44-37.32-3.11Z"/>
      <path class="cls-3" d="m129.46,144.27s-23.55-7.11-26.21,9.77c-2.67,16.88,6.22,33.32,16.44,34.65,10.22,1.33,28.88-5.78,32.43-24.44s-12-20.88-22.66-19.99Z"/>
      <path class="cls-3" d="m103.25,160.71c1.33-.89,12.44-5.78,13.77,1.33,1.33,7.11-1.33,8.89-1.33,8.89"/>
      <path class="cls-1" d="m151.68,163.34s-6.68-6.08-13.77-1.14c-7.09,4.94-1.67,11.39,0,11.39"/>
      <path class="cls-1" d="m73.04,162.04c1.33.89.89,32.43,41.32,35.54,40.43,3.11,68.86-17.77,71.97-19.1,3.11-1.33,4.5,3.18-3.11,10.22-14.23,13.16-23.6,23.28-23.1,22.8"/>
      <path class="cls-1" d="m79.7,181.15c1.78.89,16.88,29.32,15.55,43.98s-6.22,30.66,10.66,35.99c16.88,5.33,24.44-4.44,27.1-11.11"/>
      <path class="cls-1" d="m163.92,256.27c-4.68-25.45-39.92-58.31-39.92-58.31"/>
      <path class="cls-1" d="m95.3,193.48s20.39,23.66,26.16,33.43c5.78,9.77,24.21,33.76,23.99,41.76"/>
      <path class="cls-1" d="m147.09,195.47s23.38,26.01,30.82,42.6c0,0,11.78,20.8,4.26,33.58-7.52,12.78-31.32,14.53-37.34-6.77"/>
      <circle class="cls-1" cx="99.69" cy="100.73" r="8"/>
      <circle class="cls-1" cx="180.55" cy="112.73" r="7.55"/>
      <path class="cls-1" d="m64.6,174.48s-12.3,38.93-29.92,44.13"/>
    </g>
  </g>
</svg>