<?xml version="1.0" encoding="UTF-8"?>
<svg id="Layer_2" data-name="Layer 2" xmlns="http://www.w3.org/2000/svg" viewBox="0 0 259.63 242.39">
  <defs>
    <style>
      .cls-1 {
        fill: none;
      }

      .cls-2 {
        fill: #010101;
      }

      .cls-3 {
        fill: #231f20;
      }
    </style>
  </defs>
  <g id="Layer_1-2" data-name="Layer 1">
    <g id="Layer_1-2" data-name="Layer 1-2">
      <g>
        <g>
          <line class="cls-1" x1="46.69" y1="211.31" x2="86.72" y2="13.25"/>
          <rect class="cls-2" x="-34.33" y="108.53" width="202.06" height="7.47" transform="translate(-56.56 155.4) rotate(-78.57)"/>
        </g>
        <g>
          <line class="cls-1" x1="205.99" y1="212.11" x2="155.34" y2="9.8"/>
          <rect class="cls-2" x="176.93" y="6.7" width="7.47" height="208.54" transform="translate(-21.54 47.18) rotate(-14.05)"/>
        </g>
        <g>
          <line class="cls-1" x1="130.2" y1="133.15" x2="86.5" y2="8.16"/>
          <rect class="cls-2" x="104.61" y="4.46" width="7.47" height="132.4" transform="translate(-17.25 39.72) rotate(-19.27)"/>
        </g>
        <g>
          <line class="cls-1" x1="130.96" y1="135.09" x2="154.81" y2="9.7"/>
          <rect class="cls-2" x="79.06" y="68.67" width="127.64" height="7.47" transform="translate(45.03 199.22) rotate(-79.22)"/>
        </g>
        <g>
          <circle class="cls-3" cx="97.25" cy="178.09" r="4.2"/>
          <path class="cls-3" d="m97.25,186.03c-4.38,0-7.94-3.56-7.94-7.94s3.56-7.94,7.94-7.94,7.94,3.56,7.94,7.94-3.56,7.94-7.94,7.94Zm0-8.4c-.26,0-.47.21-.47.47s.21.47.47.47.47-.21.47-.47-.21-.47-.47-.47Z"/>
        </g>
        <g>
          <circle class="cls-3" cx="166.34" cy="178.09" r="4.2"/>
          <path class="cls-3" d="m166.34,186.03c-4.38,0-7.94-3.56-7.94-7.94s3.56-7.94,7.94-7.94,7.94,3.56,7.94,7.94-3.56,7.94-7.94,7.94Zm0-8.4c-.26,0-.47.21-.47.47s.21.47.47.47.47-.21.47-.47-.21-.47-.47-.47Z"/>
        </g>
        <g>
          <ellipse class="cls-3" cx="134.56" cy="232.48" rx="13.55" ry="6.11"/>
          <path class="cls-3" d="m134.56,242.33c-10.02,0-17.28-4.14-17.28-9.84s7.27-9.84,17.28-9.84,17.28,4.14,17.28,9.84-7.27,9.84-17.28,9.84Zm-9.6-9.84c1.01.9,4.33,2.37,9.6,2.37s8.58-1.48,9.6-2.37c-1.02-.9-4.33-2.37-9.6-2.37s-8.58,1.48-9.6,2.37Z"/>
        </g>
        <path class="cls-2" d="m129.82,242.39C58.24,242.39,0,188.02,0,121.2S58.24,0,129.82,0s129.82,54.37,129.82,121.2-58.24,121.2-129.82,121.2Zm0-234.92c-67.46,0-122.35,51.01-122.35,113.73s54.89,113.73,122.35,113.73,122.35-51.01,122.35-113.73S197.28,7.47,129.82,7.47h0Z"/>
        <g>
          <polygon class="cls-2" points="131.8 148.88 135.78 127.09 124.9 127.83 131.8 148.88"/>
          <path class="cls-2" d="m131.93,150.77l-7.65-23.37,12.08-.82-4.43,24.19h0Zm-6.39-22.52l6.14,18.73,3.55-19.39-9.68.65h0Z"/>
        </g>
      </g>
    </g>
  </g>
</svg>