<?xml version="1.0" encoding="UTF-8"?>
<svg id="Layer_2" data-name="Layer 2" xmlns="http://www.w3.org/2000/svg" xmlns:xlink="http://www.w3.org/1999/xlink" viewBox="0 0 302.44 276.93">
  <defs>
    <style>
      .cls-1, .cls-2, .cls-3 {
        fill: none;
      }

      .cls-2 {
        clip-path: url(#clippath-1);
      }

      .cls-4 {
        fill: #f2ecb9;
      }

      .cls-5 {
        fill: #f8f2bd;
      }

      .cls-6 {
        fill: #689d98;
      }

      .cls-7 {
        fill: #ed9c54;
      }

      .cls-8 {
        fill: #ea9752;
      }

      .cls-9 {
        fill: #fff;
      }

      .cls-10 {
        fill: #eb9c56;
      }

      .cls-11 {
        fill: #ee9c56;
      }

      .cls-12 {
        fill: #faf3bb;
      }

      .cls-13 {
        fill: #faf4bb;
      }

      .cls-14 {
        fill: #fbf5bc;
      }

      .cls-15 {
        fill: #e69958;
      }

      .cls-16 {
        fill: #8abcaa;
      }

      .cls-17 {
        fill: #b4cab8;
      }

      .cls-18 {
        fill: #e45538;
      }

      .cls-19 {
        fill: #e35b3c;
      }

      .cls-20 {
        fill: #121b2d;
      }

      .cls-21 {
        fill: #1f3340;
      }

      .cls-22 {
        fill: #141f2f;
      }

      .cls-23 {
        fill: #19212e;
      }

      .cls-24 {
        fill: #5b9492;
      }

      .cls-25 {
        fill: #5b9493;
      }

      .cls-26 {
        fill: #5a9493;
      }

      .cls-27 {
        fill: #284b5a;
      }

      .cls-28 {
        fill: #2d4c5a;
      }

      .cls-29 {
        fill: #294b5b;
      }

      .cls-30 {
        fill: #78a59d;
      }

      .cls-31 {
        fill: #71a29b;
      }

      .cls-32 {
        fill: #7b8c87;
      }

      .cls-3 {
        clip-path: url(#clippath);
      }
    </style>
    <clipPath id="clippath">
      <rect class="cls-1" width="302.44" height="276.93"/>
    </clipPath>
    <clipPath id="clippath-1">
      <rect class="cls-1" width="302.44" height="276.93"/>
    </clipPath>
  </defs>
  <g id="Layer_1-2" data-name="Layer 1">
    <g class="cls-3">
      <g class="cls-2">
        <g>
          <path class="cls-9" d="m302.44,276.93H0C0,184.62,0,92.31,0,0,100.81,0,201.63,0,302.44,0c0,92.31,0,184.62,0,276.93ZM4,134.26c-.05,1.84-.11,3.68-.13,5.52,0,.53.12,1.06.18,1.59.02.04.06.05.1.04.07,1.51.16,3.01.22,4.52.02.48-.05.98.01,1.45.35,2.75.68,5.5,1.1,8.24.39,2.54.8,5.07,1.33,7.58.56,2.61,1.25,5.19,1.93,7.77.76,2.86,1.49,5.73,2.42,8.54.89,2.69,1.99,5.32,3.04,7.96,2.74,6.91,6.13,13.51,10.1,19.77,2.95,4.65,6.24,9.09,9.55,13.5,5.44,7.23,11.84,13.57,18.67,19.47,2.65,2.29,5.54,4.31,8.32,6.45.57.29,1.15.85,1.69.82.82-.05,1.03.42,1.38.89.16.23.3.51.53.65.5.31,1.08.49,1.57.81.53.34.96.83,1.49,1.17,1.01.66,2.07,1.25,3.08,1.91.44.29.82.68,1.23,1.03.41.25.83.5,1.24.75.12.13.23.25.35.38.27.22.5.53.81.66.75.31,1.53.54,2.3.8.81.35,1.73.56,2.42,1.07,1.77,1.31,4.3.99,5.82,2.77.05.06.16.11.25.11.72.03,1.28.37,1.92.7,1.76.91,3.67,1.53,5.52,2.25,1.11.43,2.22.86,3.34,1.25,1.01.36,2.01.71,3.04.99.61.16,1.17-.02,1.84.56.74.64,2.07.61,3.15.86.29.07.59.08.88.16,1.57.43,3.12.89,4.7,1.29.59.15,1.22.09,1.82.21.54.11,1.04.42,1.58.51.72.12,1.48.06,2.21.19.63.11,1.23.42,1.86.53,1.03.18,2.08.27,3.12.4.14.1.28.28.43.3,1.99.27,3.98.55,5.97.77,1.94.21,3.89.39,5.84.52.55.04,1.1-.12,1.66-.18.25.07.51.21.76.2,4.61-.06,9.22-.13,13.83-.2,3.02.23,5.99-.31,8.96-.7,2.87-.38,5.75-.77,8.56-1.42,4.54-1.06,9.1-2.14,13.53-3.57,4.69-1.51,9.27-3.39,13.86-5.2,5.45-2.15,10.54-5.03,15.54-8.06,6.86-4.16,13.29-8.92,19.26-14.28,4.54-4.08,8.73-8.5,12.75-13.1,6.38-7.3,11.74-15.28,16.44-23.72,1.65-2.95,3.02-6.05,4.46-9.11,1.17-2.51,2.39-5.01,3.34-7.6,1.44-3.91,2.69-7.89,3.99-11.86.3-.93.8-1.6,1.61-2.2,2.11-1.57,4.2-3.2,6.17-4.94,3.35-2.97,5.4-6.73,6.4-11.09.17-.72.44-1.45.78-2.11,1.81-3.46,3.66-6.89,5.5-10.34.07-.13.14-.27.2-.4.13-.25.26-.51.39-.76.07-.02.09-.06.07-.13.04-.08.07-.15.11-.23.06-.11.12-.22.17-.33.13-.24.26-.48.39-.72,2.55-4.6,5.14-9.18,7.64-13.81,1.44-2.67,2.43-5.47,2.22-8.63-.23-3.51-1.61-6.34-4.96-7.57-3.49-1.28-7.15-2.1-10.73-3.12-2.55-.68-5.09-1.39-7.65-2.03-1.91-.48-3.85-.81-5.75-1.32-.45-.12-.94-.61-1.12-1.05-.47-1.15-.73-2.37-1.14-3.55-.92-2.63-1.78-5.28-2.83-7.86-1.34-3.29-2.68-6.59-4.3-9.74-2.56-4.98-5.19-9.93-8.08-14.72-3.44-5.69-7.46-10.99-11.8-16.03-5.65-6.57-11.77-12.68-18.52-18.13-10.88-8.78-22.62-16.1-35.81-20.92-3.05-1.11-6.1-2.21-9.16-3.3-.67-.24-1.37-.41-2.06-.59-2.81-.76-5.6-1.63-8.45-2.24-3.49-.74-7.02-1.3-10.55-1.87-2.59-.42-5.18-.82-7.79-1.07-2.31-.23-4.64-.31-6.95-.33-3-.02-6,.03-9,.15-2.67.11-5.35.26-8.01.55-3.69.4-7.39.78-11.03,1.49-5.89,1.15-11.74,2.56-17.44,4.49-6.66,2.27-13.19,4.85-19.48,8.01-8.19,4.11-15.68,9.29-22.86,14.95-8.4,6.63-15.95,14.11-22.45,22.61-4.96,6.48-9.53,13.22-13.32,20.47-3.03,5.8-5.75,11.72-7.88,17.9-1.68,4.9-3.18,9.85-4.21,14.94-.31,1.54-.81,3.05-1.08,4.59-.49,2.83-.88,5.68-1.3,8.52-.13.89-.24,1.77-.36,2.66-.12.91-.32,1.83-.35,2.74-.11,2.63-.15,5.26-.22,7.89-.05.08-.11.16-.16.24Z"/>
          <path class="cls-20" d="m4.16,134.02c.07-2.63.11-5.26.22-7.89.04-.92.23-1.83.35-2.74.12-.89.23-1.78.36-2.66.42-2.84.81-5.69,1.3-8.52.27-1.55.77-3.05,1.08-4.59,1.03-5.08,2.53-10.04,4.21-14.94,2.12-6.18,4.84-12.11,7.88-17.9,3.8-7.25,8.36-13.99,13.32-20.47,6.51-8.5,14.05-15.98,22.45-22.61,7.18-5.67,14.67-10.85,22.86-14.95,6.29-3.16,12.82-5.74,19.48-8.01,5.7-1.94,11.54-3.35,17.44-4.49,3.63-.71,7.34-1.08,11.03-1.49,2.66-.29,5.34-.44,8.01-.55,3-.12,6-.17,9-.15,2.32.02,4.65.1,6.95.33,2.61.25,5.2.66,7.79,1.07,3.52.57,7.06,1.12,10.55,1.87,2.84.61,5.63,1.48,8.45,2.24.69.19,1.39.35,2.06.59,3.06,1.09,6.11,2.18,9.16,3.3,13.19,4.82,24.93,12.14,35.81,20.92,6.75,5.45,12.87,11.55,18.52,18.13,4.33,5.04,8.36,10.35,11.8,16.03,2.89,4.79,5.52,9.74,8.08,14.72,1.62,3.15,2.96,6.46,4.3,9.74,1.05,2.58,1.92,5.23,2.83,7.86.41,1.17.68,2.4,1.14,3.55.18.44.68.93,1.12,1.05,1.9.51,3.85.84,5.75,1.32,2.56.64,5.1,1.35,7.65,2.03.1.24.15.52.31.71.73.88.81,1.87.6,2.93-.06-.02-.12-.04-.17-.06-.06,0-.12,0-.18-.01-.33,0-.66.06-.98.02-1.49-.18-2.98-.38-4.48-.57-.8-.01-1.6-.02-2.4-.04-1.66.09-3.31.2-4.97.26-3.22.13-6.31.86-9.19,2.23-2.11,1-4.07,2.33-6.1,3.51l.03.4c1.24.59,2.45,1.26,3.73,1.74.7.27,1.53.35,2.29.29,1.03-.09,2.07-.33,3.07-.61,3.96-1.1,7.81-2.58,11.95-3.06,3.75-.44,7.1.13,9.9,2.81.27.34.53.68.8,1.01,0,0,.02.04.02.04.1.19.21.38.31.57.14.48.28.97.42,1.45,0,1.09,0,2.19,0,3.28-.08.36-.16.72-.24,1.09-1.42,3.34-2.86,6.67-4.26,10.02-.52,1.25-.92,2.55-1.37,3.82.06,0,.12.01.18.02l.03-.06h.06c.79,0,1.75.37,2.19-.59.7-1.54,1.97-2.55,3.06-3.75,1-1.1,1.8-2.38,2.73-3.55.55-.7.87-1.62,1.87-1.92.59-.18.63-.68.56-1.26-.06-.47-.05-1.1.22-1.43.51-.62,1.22-1.08,1.9-1.65.16.49.51.97.4,1.31-.33,1.05-.83,2.05-1.28,3.05-.1.21-.31.37-.42.58-.61,1.22-1.21,2.44-1.82,3.66-.11.22-.35.43-.33.63.11,1.53-1.35,2.29-1.71,3.59-.25.9-.6,1.77-.9,2.66-.13.24-.26.48-.39.72-.06.11-.12.22-.17.33-.04.08-.07.15-.11.23-.04.03-.06.08-.07.13-.13.25-.26.51-.39.76-.14.06-.29.12-.43.18.08.07.15.15.23.22-1.84,3.44-3.69,6.88-5.5,10.34-.34.66-.61,1.38-.78,2.11-1.01,4.35-3.06,8.12-6.4,11.09-1.97,1.75-4.05,3.37-6.17,4.94-.81.6-1.3,1.27-1.61,2.2-1.3,3.96-2.55,7.95-3.99,11.86-.96,2.59-2.17,5.09-3.34,7.6-1.43,3.06-2.81,6.17-4.46,9.11-4.71,8.43-10.06,16.42-16.44,23.72-4.02,4.6-8.22,9.02-12.75,13.1-5.97,5.36-12.4,10.13-19.26,14.28-5,3.03-10.08,5.91-15.54,8.06-4.59,1.81-9.17,3.69-13.86,5.2-4.44,1.43-8.99,2.52-13.53,3.57-2.81.65-5.69,1.04-8.56,1.42-2.97.39-5.94.93-8.96.7-.18-1.32-.41-2.63-.54-3.95-.27-2.81-.61-5.62-.71-8.44-.14-3.88-.09-7.77-.13-11.65,0-.11,0-.21,0-.32v-.4s.05-.07.05-.07l-.04-.08c0-.19,0-.39,0-.58,0-.11,0-.21,0-.32v-.41c0-.1.01-.21.01-.31,0-.15,0-.29.01-.44.01-.23.02-.46.03-.69.25-3.43.38-6.87.77-10.29.62-5.53,1.67-11,3.1-16.38.46-1.72.98-3.43,1.47-5.14.11-.28.24-.55.33-.83,1.5-4.69,3.39-9.2,5.86-13.46,1.21-2.09,2.53-4.12,3.8-6.17.91-1.2,1.81-2.41,2.72-3.61.29-.38.59-.76.88-1.15.07-.07.14-.13.21-.2.05-.05.1-.1.15-.16,2.49-2.1,4.95-4.23,7.48-6.28,1.21-.97,2.56-1.77,3.85-2.65.24-.38.48-.76.71-1.13-.44-.17-.88-.34-1.44-.56.05-.19.13-.45.21-.71.63.03,1.27.06,2.16.1-2.16-.75-4.08-1.41-5.99-2.07-.29-.16-.6-.29-.88-.47-1.56-1.04-3.23-1.96-4.63-3.17-1.73-1.49-2.8-3.47-3.08-5.8-.07-.56.11-.77.68-.76,1.5.02,3,0,4.51.02,3.12.04,6.09.81,8.93,2,2.31.97,4.61,2.04,6.77,3.31,5.12,3.01,10.13,6.22,15.24,9.24,4.54,2.69,9.48,4.45,14.6,5.63,3.13.72,6.33,1.1,9.56,1.03,1.17-.02,2.34-.03,3.51-.05,2.25-.25,4.52-.4,6.75-.79,2.69-.47,5.34-1.15,8.01-1.74,1.75-.57,3.5-1.14,5.24-1.71.18-.1.35-.22.53-.29,2.3-.92,4.64-1.74,6.89-2.77,5.19-2.36,9.81-5.55,13.62-9.82,3.37-3.78,5.32-8.2,5.82-13.25.05-.55-.05-.73-.6-.84-2.33-.49-4.69-.93-6.98-1.6-5.53-1.64-9.93-4.92-13.06-9.74-1.33-2.04-2.37-4.31-3.26-6.59-2.04-5.22-3.94-10.49-5.83-15.77-.43-1.2-1.03-1.87-2.33-2.29-7.17-2.34-14.29-4.81-21.42-7.26-8.27-2.85-16.54-5.72-24.81-8.59-2.91-1.01-5.82-1.99-8.72-3.02-.41-.14-.74-.53-1.15-.65-1.05-.31-2.12-.53-3.18-.79-.18-.53-.46-1.05-.51-1.59-.09-.88-.03-1.78-.03-2.67,0-2.55.01-5.11-.02-7.66,0-.27-.27-.54-.42-.81,0-.53,0-1.06,0-1.6-.02-.2-.05-.4-.07-.59,0-.07,0-.13,0-.2.02-.2.04-.4.06-.61-.07,0-.15,0-.22,0-.02.2-.05.4-.07.6-1.3,1.28-2.5,2.69-3.92,3.81-2.16,1.69-4.46,3.21-7.18,3.93.08-.19.11-.45.25-.55.7-.49.51-.93.07-1.51-.28-.36-.34-.88-.51-1.32-.33-.83-.64-1.67-1.03-2.48-.09-.19-.43-.37-.67-.38-1.91-.1-3.82-.22-5.73-.2-.88,0-1.46-.2-1.7-1.08.09.05.17.09.26.14.11,0,.22.02.34.02.17.02.35.04.52.06.12.05.23.09.35.14.43.02.86.05,1.29.07.05,0,.1,0,.15,0,1.04.03,2.08.05,3.12.08,1.27-.1,2.55-.21,3.82-.31.22.29.39.76.66.84,1.68.47,2.33.08,2.8-1.57h.55c.24,1.01.89,1.43,1.84,1.07.8-.3,1.56-.72,2.31-1.08-.06-.38-.09-.65-.13-.91-.05-.22-.04-.5-.17-.64-.59-.65-1.22-1.26-1.83-1.9-.64-.67-1.26-1.35-1.91-2.05-.44.65-.79,1.21-1.19,1.74-1.49,1.97-3.58,3.02-5.84,3.8-.24.05-.49.1-.73.15-.06,0-.12,0-.19,0-.39,0-.79-.03-1.18-.01-.8.03-1.67.29-2.4.08-1.81-.52-3.56-1.25-5.34-1.89-1.04-1-2.12-1.94-3.09-3-1.35-1.47-1.88-3.38-2.54-5.21.83-.66-.12-1.37.15-2.05-.33-.11-.59-.2-.97-.33.27-.2.42-.35.6-.43,1.37-.67,2.82-1.21,4.1-2.02,1.41-.89,3.22-1.32,3.98-3.08.06-.14.25-.27.41-.33,1.25-.5,2.51-.97,3.76-1.47.17-.07.31-.21.47-.33-.4-.27-.72-.48-1.05-.7.06-.03.12-.05.19-.08.06,0,.12.01.17.02.15-.1.3-.2.44-.3.89,0,1.77,0,2.66,0,.19.04.37.08.56.11.66.21,1.32.42,1.99.63.13.37.15.91.41,1.07.23.14.72-.13,1.09-.22.24.17.47.35.71.52-.03,1.09.45,1.59,1.69,1.78l.02.03c-.04.79.16,1.45.99,1.77-.13.32-.23.58-.41,1.03h1.32c1.47,2.96,2.93,5.91,4.4,8.87.37.75.74,1.51,1.18,2.44.04-.28.07-.35.06-.4-.73-3.12-1.43-6.24-2.19-9.35-.96-3.9-2.47-7.55-5.26-10.54-1.87-2-4.06-3.45-6.91-3.58-3.75-.36-6.99.83-10.04,2.98-5,3.53-10.11,6.9-15.18,10.33-.85.57-1.72,1.11-2.7,1.73.29.03.44.04.59.06.23.76.84.88,1.5,1.18,1.02.45,1.87,1.17,3.05.5.08-.04.46.22.48.38.03.19-.17.59-.27.59-1.18-.03-1.81.52-2.39,1.56-.34.62-1.27,1.11-2.23.77-.06-.02-.22.2-.33.32-2.07-.9-4.14-1.79-6.21-2.69.13-.23.31-.45.37-.7.06-.22.08-.56-.04-.69-.46-.51-1.6-.58-2.24-.2.1.34.19.68.29,1.01-.42-.12-.85-.25-1.27-.37-.18-.43-.36-.86-.55-1.32.16-.07.27-.17.37-.16,1.45.19,1.91-.63,2.42-1.86.61-1.46,1.74-2.66,3.32-3.28.16-.06.36-.17.42-.32.66-1.42,2.01-2.03,3.27-2.67.86-.44,1.29-.94,1.12-1.9,3.41-2.37,6.82-4.75,10.24-7.1,2.93-2.01,5.88-3.98,8.81-5.98,3.16-2.15,6.31-4.32,9.46-6.48.58-.4,1.06-.44,1.59.13,1.94,2.05,4.02,3.97,5.84,6.11,4.58,5.37,6.71,11.67,6.94,18.71.07,2.15.37,4.37,1.04,6.41,2.04,6.26,6.74,10.12,12.39,13.01.36.18.73.36,1.09.54.67.3,1.34.6,2,.9,1.51.58,3.02,1.17,4.53,1.75.39.16.77.34,1.17.48,5.5,1.88,11,3.76,16.5,5.63,2.23.76,4.48,1.48,6.72,2.22,2.68.91,5.36,1.82,8.04,2.73,1.16.4,2.33.79,3.49,1.19,2.31.8,4.61,1.6,6.92,2.4,2.17.77,4.33,1.55,6.5,2.28.31.1.82.13,1.01-.05.94-.88,1.81-1.83,2.8-2.87-.69-.23-1.25-.42-1.82-.6-2.04-.64-4.08-1.28-6.12-1.93-3.29-1.11-6.58-2.23-9.87-3.34-1.72-.62-3.43-1.25-5.16-1.84-.96-.33-1.95-.57-2.92-.86-.73-.28-1.45-.57-2.18-.82-5.95-2.07-11.89-4.15-17.6-6.83-4.93-2.21-9.61-4.85-13.85-8.24-.43-.41-.89-.79-1.29-1.22-2.45-2.63-4.45-5.5-4.97-9.19-.41-2.96-.81-5.94-1.44-8.86-1.28-5.88-4.35-10.75-8.92-14.64-3.65-3.11-7.71-5.58-12.3-7.05-1.45-.46-2.96-.73-4.45-1.09-.36-.2-.75-.35-1.08-.59-3.83-2.86-8.14-4.79-12.67-6.16-3.15-.95-6.4-1.61-9.64-2.19-2.98-.53-6-.77-9.01-1.14-.06,0-.12,0-.19,0-.18,0-.36-.01-.53-.02-.55-.02-1.11-.05-1.66-.07-4.28,0-8.55.23-12.77,1.03-3.18.6-6.36,1.22-9.5,1.98-2.28.55-4.5,1.36-6.75,2.04-.49.15-.71.41-.68.97.09,1.54.11,3.09.16,4.64,0,.08,0,.15-.01.23,0,.1-.02.2-.02.3-.54.9-1.08,1.81-1.62,2.71-1.36,2.43-2.75,4.84-4.07,7.29-2.94,5.46-5.89,10.93-8.77,16.43-2.23,4.26-4.44,8.54-6.51,12.89-1.76,3.7-2.54,7.69-2.84,11.77l-.05.06.04.07c-.01.17-.03.34-.04.51-.01.07-.02.14-.04.2-.02.21-.07.42-.06.63.11,3.07.21,6.13.35,9.2.09,1.87.19,3.73.37,5.59.28,2.84.64,5.67.96,8.51v1.44c.12,0,.24.01.36.02.06-.54.13-1.08.19-1.61.97-5.54,1.98-11.07,2.88-16.63.38-2.34.47-4.73.72-7.1.46-4.26,1.47-8.39,2.95-12.4,1.13-3.07,2.27-6.14,3.5-9.18,2.4-5.96,4.88-11.89,7.3-17.85.7-1.73,1.29-3.5,1.94-5.26.1.01.2.03.3.04-.35,1.47-.77,2.93-1.02,4.42-.43,2.53-.8,5.07-1.12,7.61-.49,3.93-.96,7.87-1.33,11.81-.42,4.45-.88,8.91-1.02,13.38-.18,5.84-.04,11.7-.1,17.54-.02,2.51-.19,5.01-.29,7.52-.1.55-.21,1.11-.29,1.66-.4,2.66-1.02,5.32-1.13,7.99-.16,3.76.07,7.54.13,11.32-.81,0-.67.65-.72,1.12-.16,1.41-.29,2.82-.4,4.24-.25,3.25-.52,6.5-.69,9.76-.1,1.88-.03,3.76-.03,5.65-.12.61-.24,1.22-.36,1.82-.61.85-1.22,1.71-1.83,2.56-.13.16-.25.33-.38.49-.06.08-.11.16-.17.24-2.61,3.56-4.73,7.41-6.56,11.4-3.19,6.95-5.2,14.29-7.07,21.67-.67,2.65-1.23,5.32-1.84,7.98-.66,2.9-1.3,5.8-1.98,8.69-.66,2.8-1.39,5.58-2.02,8.38-.91,4-1.74,8.01-2.64,12.01-.64,2.86-1.34,5.7-2.01,8.55-.87,3.66-1.74,7.32-2.62,10.97-.28,1.17-.57,2.34-.9,3.5-.09.32-.14.86-.75.63-2.78-2.14-5.67-4.16-8.32-6.45-6.83-5.9-13.23-12.24-18.67-19.47-3.31-4.4-6.61-8.85-9.55-13.5-3.97-6.26-7.36-12.86-10.1-19.77-1.05-2.64-2.15-5.26-3.04-7.96-.93-2.81-1.65-5.68-2.42-8.54-.69-2.58-1.38-5.16-1.93-7.77-.54-2.51-.95-5.04-1.33-7.58-.42-2.74-.75-5.49-1.1-8.24-.06-.48,0-.97-.01-1.45-.07-1.51-.15-3.01-.22-4.52.01-.42.04-.85.04-1.27,0-2.04-.02-4.08-.03-6.12Zm168.87-66.73l-.13-.24-.05-.03s0-.06,0-.06c.04-.17.09-.34.13-.52-.05-.02-.09-.04-.14-.05-.07.1-.14.21-.21.31-.6-.31-.86-1.21-1.75-1,.03-.31.06-.63.09-.93-1.11-.53-1.52-.26-1.55.97-.97-.04-1.64.53-2.29,1.15-1.11.22-1.23.49-.62,1.44,0,.48,0,.96,0,1.44-.17.26-.53.56-.48.77.19.84,1.1,1.42,1.99,1.4.23.09.44.21.68.25,1.96.35,3.19.28,4.19-1.42.34-.57.27-1.39.39-2.09.91-.22,1.02-.44.69-1.45-.31.01-.64.03-.96.05,0,0,.01,0,.01,0Zm-86.67-12.63s0,0,0,0c.67-.97,1.34-1.95,2.01-2.92.07-.18.13-.36.2-.53.52-.65,1.11-1.25,1.56-1.94,2.74-4.17,5.47-8.35,8.18-12.53.87-1.34,1.72-2.7,2.51-4.1.25-.44.24-1.02.35-1.54-.08-.02-.16-.04-.24-.06-.24.16-.48.33-.72.49-.97.53-1.94,1.05-2.91,1.58-1.32.79-2.66,1.54-3.95,2.37-1.88,1.2-3.72,2.45-5.58,3.67-.47.27-.96.51-1.41.81-3.15,2.11-6.34,4.17-9.41,6.38-4.36,3.13-8.69,6.3-12.91,9.62-3.33,2.63-6.05,5.87-8.23,9.53-2.63,4.41-4.13,9.27-5.48,14.17-.8,2.92-1.36,5.91-2.02,8.87-.38,1.71-.73,3.42-1.1,5.12-.03.05-.08.1-.09.15-.47,2.01-.94,4.02-1.41,6.03-.24,1.15-.48,2.31-.72,3.46-.39,1.62-.8,3.23-1.18,4.86-.46,2.02-.9,4.06-1.35,6.08-.07.24-.14.48-.22.72-.05.31-.1.61-.15.92-.05.03-.06.08-.02.13-.03.08-.06.15-.09.23-.22.97-.44,1.94-.65,2.92-.84,3.59-1.67,7.17-2.51,10.76-.01.09-.03.17-.04.26-.35,1.38-.71,2.75-1.06,4.13-.24.94-.5,1.88-.72,2.82-.67,2.82-1.32,5.64-1.98,8.46l-.04.89c-.02.06-.03.12-.05.17-.05.13-.1.26-.15.39-.47,1.78-.99,3.54-1.42,5.33-.61,2.57-1.13,5.16-1.75,7.72-1.19,4.99-2.42,9.97-3.63,14.96-.04.18.03.38.04.57.13.08.25.16.38.24,1.44-1.56,2.89-3.1,4.3-4.68.35-.4.58-.9.87-1.36.25-.12.55-.19.75-.37.46-.4.84-.88,1.3-1.28,3.43-2.97,6.84-5.96,10.31-8.87,3.47-2.91,7-5.76,10.52-8.61,3.74-3.03,7.49-6.07,10.59-9.78,2.34-2.8,4.36-5.79,5.69-9.23.97-2.53,1.69-5.11,1.76-7.83.06-2.38.13-4.78-.05-7.15-.18-2.37-.66-4.71-1.03-7.06-.56-3.51-1.21-7.01-1.72-10.53-.36-2.5-.69-5.03-.79-7.55-.08-1.98.16-3.98.32-5.97.3-3.85,1.36-7.5,3.14-10.91,1.51-2.89,3.18-5.7,4.87-8.5,1.63-2.7,3.39-5.34,5.07-8.01.42-.66.76-1.37,1.13-2.06.31-.48.61-.97.92-1.45Zm173.83,76.84c-.44-.58-.97-1.1-1.29-1.74-1.44-2.92-2.83-5.86-4.19-8.82-.4-.87-.64-1.82-1-2.86-.15.23-.21.29-.2.32.79,3.06,1.44,6.17,2.43,9.17.58,1.78,1.68,3.39,2.55,5.07,2.14,3.58,5.08,6.42,8.53,8.67,3.53,2.3,7.58,3.47,11.49,4.95.61.23.96-.07,1.2-.62,1.01-2.31,1.55-4.71,1.41-7.24-.03-.52-.15-1.04-.25-1.66-.45.28-.78.44-1.05.66-1.6,1.32-3.46,1.76-5.49,1.79-2.55.04-4.81-.88-6.98-2.04-2.71-1.45-5.16-3.28-7.15-5.66Zm-87.81-47.8c-.2.46-.4.71-.36.91.04.23.3.42.46.63.19-.25.47-.47.53-.75.03-.15-.3-.39-.63-.79Zm8.65-2.12c-.05-.02-.11-.07-.15-.06-.04.01-.05.09-.07.14.05.02.11.07.15.06.04-.01.05-.09.07-.14Z"/>
          <path class="cls-14" d="m119.99,270.39c-1.04-.13-2.09-.22-3.12-.4-.63-.11-1.23-.43-1.86-.53-.72-.12-1.48-.06-2.21-.19-.54-.09-1.04-.4-1.58-.51-.6-.12-1.23-.06-1.82-.21-1.57-.39-3.13-.86-4.7-1.29-.29-.08-.59-.09-.88-.16-1.08-.25-2.4-.22-3.15-.86-.67-.58-1.23-.39-1.84-.56-1.03-.28-2.04-.63-3.04-.99-1.12-.4-2.23-.82-3.34-1.25-1.85-.72-3.76-1.34-5.52-2.25-.64-.33-1.2-.67-1.92-.7-.08,0-.19-.05-.25-.11-1.53-1.78-4.05-1.46-5.82-2.77-.69-.51-1.61-.72-2.42-1.07.82-1.78,1.66-3.54,2.45-5.33,2.76-6.27,6.03-12.28,9.64-18.1,1.13-1.82,2.27-3.64,3.41-5.46.08-.09.16-.18.24-.28,2.96-3.88,5.9-7.77,8.89-11.62,1.32-1.69,2.73-3.31,4.11-4.96,2.66-2.61,5.3-5.24,7.98-7.82,5.84-5.62,12.29-10.42,19.25-14.55,8.25-4.89,17.1-8.24,26.52-10.08,1.59-.31,3.19-.57,4.79-.85,1.22-.13,2.44-.3,3.66-.38,3.24-.22,6.49-.4,9.73-.57.25-.01.52.19.78.3-.21.15-.41.32-.64.45-.18.1-.39.15-.59.22-.67.27-1.34.56-2.01.82-4.16,1.62-8.16,3.59-11.97,5.91-9.24,5.62-17.23,12.66-23.76,21.32-4.2,5.57-7.76,11.5-10.43,17.96-2.3,5.56-4.24,11.23-5.47,17.12-.8,3.85-1.4,7.74-1.88,11.64-.48,3.87-.73,7.78-1.01,11.67-.15,2.14-.16,4.3-.23,6.45Z"/>
          <path class="cls-24" d="m119.99,270.39c.07-2.15.07-4.3.23-6.45.28-3.9.53-7.8,1.01-11.67.48-3.9,1.08-7.8,1.88-11.64,1.23-5.88,3.17-11.56,5.47-17.12,2.67-6.46,6.23-12.4,10.43-17.96,6.52-8.66,14.52-15.69,23.76-21.32,3.81-2.32,7.81-4.29,11.97-5.91.67-.26,1.34-.54,2.01-.82.36.11.72.21,1.07.32-1.29.88-2.64,1.67-3.85,2.65-2.53,2.04-4.99,4.18-7.48,6.28-.05.05-.1.1-.15.16-.07.07-.14.13-.21.2-.35.3-.71.6-1.06.9-1.14,1.17-2.27,2.34-3.41,3.5,0,0-.05.04-.05.04-.04.04-.09.09-.13.13-.85.9-1.69,1.81-2.54,2.7-3.55,3.74-6.61,7.85-9.3,12.23-4.37,7.07-7.82,14.55-10.31,22.49-2.73,8.68-4.27,17.58-5,26.62-.33,4.04-.28,8.11-.39,12.17-.03,1.3-.02,2.61-.03,3.91-.55.07-1.11.22-1.66.18-1.95-.14-3.9-.31-5.84-.52-1.99-.22-3.98-.5-5.97-.77-.15-.02-.29-.19-.43-.3Z"/>
          <path class="cls-12" d="m89.43,152.62c.13-.16.25-.33.38-.49.19.2.49.39.53.62.09.47.05.97.06,1.45-.11.62-.19,1.24-.34,1.85-.9,3.7-1.84,7.38-2.72,11.08-.68,2.88-1.29,5.78-1.94,8.66-.23.94-.49,1.87-.68,2.81-1.09,5.61-2.21,11.21-3.24,16.82-.92,5.02-1.77,10.06-2.61,15.1-.66,3.93-1.24,7.88-1.87,11.82-.58,3.64-1.2,7.28-1.77,10.92-.61,3.91-1.2,7.82-1.76,11.74-.4,2.79-.74,5.6-1.13,8.51-.07.05-.3.24-.54.43-.41-.35-.78-.74-1.23-1.03-1.01-.66-2.07-1.25-3.08-1.91-.53-.35-.96-.83-1.49-1.17-.49-.32-1.07-.5-1.57-.81-.22-.14-.36-.42-.53-.65-.34-.47-.56-.95-1.38-.89-.55.04-1.13-.53-1.69-.82.61.22.66-.31.75-.63.33-1.16.62-2.33.9-3.5.88-3.66,1.75-7.32,2.62-10.97.68-2.85,1.37-5.7,2.01-8.55.9-4,1.74-8.02,2.64-12.01.64-2.8,1.37-5.58,2.02-8.38.68-2.89,1.32-5.8,1.98-8.69.61-2.66,1.16-5.34,1.84-7.98,1.87-7.38,3.89-14.72,7.07-21.67,1.83-3.99,3.95-7.85,6.56-11.4.06-.08.11-.16.17-.24Z"/>
          <path class="cls-7" d="m71.82,253.94c.23-.19.47-.37.54-.43.38-2.91.73-5.71,1.13-8.51.56-3.92,1.15-7.83,1.76-11.74.57-3.64,1.18-7.28,1.77-10.92.63-3.94,1.22-7.88,1.87-11.82.84-5.04,1.69-10.08,2.61-15.1,1.03-5.62,2.14-11.22,3.24-16.82.18-.94.45-1.87.68-2.81.19.19.48.35.54.57.29,1.19.52,2.39.78,3.59.03.14.04.33.14.42.68.61.59,1.41.6,2.19,0,.35.15.71.16,1.06.05,1.45.61,2.57,1.99,3.19.05.02.08.09.12.14.73.86.81,1.85.7,2.94-.05.51.3,1.06.47,1.59.06,4.14.16,8.28.17,12.43.03,7.59-.07,15.19.59,22.76.03.33.24.65.37.97-1.14,1.82-2.28,3.64-3.41,5.46-3.61,5.82-6.88,11.82-9.64,18.1-.79,1.79-1.63,3.55-2.45,5.33-.77-.26-1.55-.49-2.3-.8-.31-.13-.54-.43-.81-.66.43-.09.87-.19,1.3-.28-.02-.11-.04-.22-.06-.34-.54-.08-1.1-.42-1.59.24-.41-.25-.83-.5-1.24-.75Zm4.62,1.3c.44-1.49-1.05-2.89-3.02-2.82,1.47.45,2.6,1.26,3.02,2.82Z"/>
          <path class="cls-19" d="m133.89,271.8c0-1.3,0-2.61.03-3.91.11-4.06.06-8.13.39-12.17.74-9.04,2.28-17.94,5-26.62,2.49-7.94,5.94-15.42,10.31-22.49.8.44,1.55.9,1.8,1.9.32,1.29.73,2.55,1.11,3.82-.49,1.71-1.02,3.42-1.47,5.14-1.43,5.38-2.48,10.85-3.1,16.38-.38,3.42-.52,6.86-.77,10.29-.01.23-.02.46-.03.69,0,.15,0,.29-.01.43,0,.1,0,.21,0,.31,0,.14,0,.28,0,.41,0,.11,0,.21,0,.32,0,.19,0,.39,0,.58-.04.05-.04.1,0,.15,0,.13,0,.27,0,.4,0,.11,0,.21,0,.32.03,3.88-.02,7.77.13,11.65.1,2.82.44,5.63.71,8.44.13,1.32.35,2.63.54,3.95-4.61.07-9.22.14-13.83.2-.25,0-.51-.13-.76-.2Z"/>
          <path class="cls-23" d="m286.03,110.44c.21-1.06.13-2.05-.6-2.93-.16-.19-.21-.47-.31-.71,3.58,1.02,7.24,1.84,10.73,3.12,3.36,1.23,4.73,4.06,4.96,7.57.21,3.15-.78,5.95-2.22,8.63-2.5,4.63-5.09,9.21-7.64,13.81.3-.89.65-1.76.9-2.66.36-1.3,1.82-2.06,1.71-3.59-.01-.2.23-.41.33-.63.61-1.22,1.2-2.44,1.82-3.66.11-.21.32-.37.42-.58.45-1.01.95-2,1.28-3.05.11-.34-.24-.83-.4-1.31-.68.57-1.39,1.03-1.9,1.65-.27.33-.28.96-.22,1.43.07.58.03,1.08-.56,1.26-1,.31-1.32,1.22-1.87,1.92-.92,1.17-1.73,2.45-2.73,3.55-1.09,1.2-2.36,2.22-3.06,3.75-.44.96-1.4.6-2.19.59.44-.46.89-.9,1.31-1.37,1.66-1.83,3.32-3.67,4.98-5.51.05-.07.11-.14.16-.21.04-.05.09-.1.13-.15,2.57-3.57,4.98-7.25,5.47-11.76.14-1.34.02-2.81-.4-4.09-.77-2.37-2.74-3.57-5.05-4.13-1.67-.41-3.38-.64-5.07-.95Z"/>
          <path class="cls-23" d="m4.16,134.02c0,2.04.02,4.08.03,6.12,0,.42-.03.85-.04,1.27-.04.01-.08,0-.1-.04-.01-2.37-.03-4.74-.04-7.11.05-.08.11-.16.16-.24Z"/>
          <path class="cls-11" d="m4,134.26c.01,2.37.03,4.74.04,7.11-.06-.53-.18-1.06-.18-1.59.02-1.84.09-3.68.13-5.52Z"/>
          <path class="cls-11" d="m73.06,254.69c.49-.66,1.05-.32,1.59-.24.02.11.04.22.06.34-.43.09-.87.19-1.3.28-.12-.13-.23-.25-.35-.38Z"/>
          <path class="cls-23" d="m289.63,142.51c-.08-.07-.15-.15-.23-.22.14-.06.29-.12.43-.18-.07.13-.14.27-.2.4Z"/>
          <path class="cls-23" d="m290.4,140.99c.06-.11.12-.22.17-.33-.06.11-.12.22-.17.33Z"/>
          <path class="cls-23" d="m290.22,141.35c.01-.05.04-.09.07-.13.02.07,0,.11-.07.13Z"/>
          <path class="cls-14" d="m133.37,25.29c.18,0,.36.01.53.02.06,0,.12,0,.19,0,3.01.37,6.03.61,9.01,1.14,3.24.58,6.49,1.23,9.64,2.19,4.53,1.37,8.84,3.29,12.67,6.16.33.24.72.4,1.08.59.22.33.38.71.66.97.55.54,1.17,1.01,1.76,1.51-.14.07-.27.15-.41.22-.97.05-1.93.13-2.9.15-2.69.07-5.3.57-7.84,1.41-7.63,2.5-14.11,6.89-20.04,12.2-2.99,2.68-6.26,4.98-9.79,6.89-3.88,2.11-8.01,3.59-12.22,4.85-.39.12-.75.31-1.22.51.76,1.47,1.66,2.67,2.79,3.69,1.1,1.17,2.15,2.39,3.3,3.5,5.65,5.39,11.79,10.15,18.33,14.42,6.22,4.06,12.58,7.86,19.19,11.26.8.41,1.59.87,2.38,1.31-2.87,2.01-5.75,4.03-8.62,6.04-.52.36-.99.37-1.59.09-4.22-1.96-8.28-4.2-12.02-6.95-3.49-2.56-6.92-5.22-10.23-8-2.75-2.31-5.29-4.88-7.93-7.33-.47-.44-.99-.83-1.49-1.25,0-.02,0-.05-.02-.07,0-.01-.04-.01-.05-.01.02.03.05.06.07.09.71,1.96,1.32,3.96,2.15,5.86,2.49,5.74,5.9,10.94,9.81,15.79,2.71,3.38,5.72,6.48,8.91,9.44,3.61,3.36,6.92,7.06,10.27,10.7,4.73,5.15,7.65,11.23,8.99,18.08.1.51.26,1.01.43,1.64.46-.3.77-.48,1.06-.68,1.31-.88,2.6-1.78,3.92-2.65,5.84-3.84,12.11-6.77,18.79-8.83,6.91-2.13,14.01-3.31,21.16-4.2.49,0,.97,0,1.46-.02,5.02-.29,10.03-.58,15.05-.87.33-.02.66-.06.99-.09.27.05.55.1.87.15-.43.71-.81,1.3-1.15,1.9-.35.6-.69,1.21-1.01,1.83-3.8,7.28-6.62,14.88-7.82,23.04-.67,4.53-.85,9.05-.02,13.57.84,4.55,3.02,8.35,6.69,11.22,3.91,3.06,8.42,4.44,13.32,4.7.07,0,.14,0,.21.01,3.65.26,7.28-.02,10.91-.46-.05.28-.1.55-.15.83-2.67.59-5.32,1.27-8.01,1.74-2.23.39-4.5.54-6.75.79-1.17.02-2.34.03-3.51.05-3.23.06-6.44-.31-9.56-1.03-5.12-1.18-10.06-2.94-14.6-5.63-5.11-3.03-10.12-6.23-15.24-9.24-2.16-1.27-4.45-2.33-6.77-3.31-2.84-1.19-5.82-1.96-8.93-2-1.5-.02-3,0-4.51-.02-.57,0-.74.21-.68.76.28,2.33,1.35,4.31,3.08,5.8,1.41,1.22,3.07,2.13,4.63,3.17.27.18.58.32.88.47-.25.42-.5.83-.75,1.25-3.05-.73-5.8-2.19-8.56-3.62-.24-.18-.48-.36-.71-.55-2.87-2.3-5.74-4.61-8.61-6.91-.1-2.54-.04-5.1-.34-7.61-.91-7.5-3.84-14.22-8.17-20.37-3.12-4.43-7.13-8.01-11.14-11.57-3.93-3.49-7.62-7.22-10.84-11.38-6.34-8.21-11.13-17.24-14.5-27.05-2.22-6.46-3.88-13.06-5.05-19.78-.43-2.5-.78-5.01-1.11-7.53-.21-1.55-.34-3.12-.48-4.68-.28-3.15-.56-6.29-.8-9.44-.14-1.84-.17-3.69-.25-5.54,0-.75,0-1.5-.01-2.25,0-.1.02-.2.02-.3,0-.08,0-.15.01-.23-.05-1.55-.07-3.1-.16-4.64-.03-.56.18-.82.68-.97,2.25-.69,4.47-1.49,6.75-2.04,3.14-.76,6.32-1.38,9.5-1.98,4.22-.79,8.48-1.04,12.77-1.03.55.02,1.11.05,1.66.07Z"/>
          <path class="cls-26" d="m232.46,181.5c-4.9-.26-9.41-1.64-13.32-4.7-3.67-2.88-5.85-6.67-6.69-11.22-.83-4.52-.65-9.04.02-13.57,1.2-8.16,4.02-15.76,7.82-23.04.32-.62.66-1.23,1.01-1.83.35-.6.72-1.19,1.15-1.9-.32-.06-.6-.11-.87-.15-.45-.33-.85-.78-1.34-.97-5.58-2.16-11.19-4.27-16.78-6.4-3.3-1.26-6.6-2.54-9.91-3.79-1.66-.63-3.34-1.23-5.01-1.85-2.8-1.37-5.59-2.74-8.39-4.12-5.35-2.63-10.71-5.27-16.06-7.9-1.19-.59-2.39-1.17-3.58-1.75-.79-.44-1.58-.89-2.38-1.31-6.6-3.4-12.97-7.2-19.19-11.26-6.54-4.27-12.68-9.03-18.33-14.42-1.16-1.11-2.21-2.33-3.3-3.5.19-.02.4-.09.57-.04,1.89.52,3.76,1.1,5.66,1.56,1.28.31,2.6.44,3.91.65,1.49.49,2.98.98,4.47,1.47.42.12.85.25,1.27.37.54.19,1.08.38,1.63.58,2.07.9,4.14,1.79,6.21,2.69,1.67.97,3.42,1.84,5.01,2.94,3.16,2.19,6.24,4.49,9.33,6.78,2.34,1.73,4.63,3.53,7.42,4.51,2.98,1.05,6,1.3,9.04.21,2.72-.72,5.02-2.24,7.18-3.93,1.43-1.12,2.62-2.53,3.92-3.81.07,0,.15,0,.22,0,0,.07,0,.13,0,.2.02.2.05.4.07.59,0,.53,0,1.06,0,1.6-.02.12-.07.24-.07.36-.01,3.73-.01,7.46-.04,11.2,0,.78.41,1.08,1.09,1.17,1.06.26,2.13.48,3.18.79.41.12.74.5,1.15.65,2.9,1.02,5.81,2.01,8.72,3.02,8.27,2.86,16.54,5.74,24.81,8.59,7.13,2.45,14.25,4.93,21.42,7.26,1.3.42,1.9,1.09,2.33,2.29,1.89,5.28,3.78,10.55,5.83,15.77.89,2.28,1.94,4.54,3.26,6.59,3.13,4.82,7.53,8.1,13.06,9.74,2.28.68,4.64,1.11,6.98,1.6.55.12.65.3.6.84-.5,5.06-2.44,9.47-5.82,13.25-3.81,4.28-8.44,7.46-13.62,9.82-2.25,1.03-4.59,1.85-6.89,2.77-.19.07-.36.19-.53.29-.22-.05-.45-.18-.65-.13-1.48.32-2.96.68-4.44,1.02-3.62.44-7.25.72-10.91.46-.07,0-.14,0-.21-.01Zm7.29-41.01c.95.01,1.64-.7,1.63-1.68,0-.99-.62-1.62-1.58-1.61-.93,0-1.67.75-1.67,1.67,0,.87.74,1.61,1.62,1.62Zm-1.54,23.66c-.94.02-1.6.69-1.57,1.6.03.85.73,1.53,1.59,1.52.86,0,1.5-.63,1.51-1.48.01-1-.6-1.66-1.52-1.64Zm-14.58-10.15c-.76.01-1.52.77-1.53,1.51,0,.81.83,1.6,1.67,1.57.76-.03,1.43-.79,1.4-1.6-.02-.78-.77-1.49-1.55-1.47Zm40.25,8.86c-.98-.04-1.57.42-1.64,1.29-.07.86.57,1.58,1.45,1.64.83.05,1.54-.52,1.59-1.27.06-.93-.52-1.62-1.4-1.66Zm-37.2,4.04c.88-.01,1.46-.65,1.44-1.59-.02-.86-.55-1.36-1.45-1.36-.99,0-1.49.52-1.47,1.52.02.9.58,1.44,1.48,1.43Zm9.9-12.24c-.86,0-1.58.67-1.55,1.44.03.7.79,1.48,1.45,1.5.85.02,1.49-.68,1.48-1.6-.01-.84-.53-1.34-1.38-1.34Zm16.46-.19c0-.76-.63-1.42-1.36-1.43-.83,0-1.55.67-1.54,1.45,0,.75.7,1.57,1.35,1.59.72.02,1.55-.85,1.55-1.62Zm-3.26,11.72c.95,0,1.47-.5,1.47-1.43,0-.87-.57-1.5-1.35-1.49-.83.02-1.51.68-1.53,1.49-.02.79.61,1.43,1.41,1.42Z"/>
          <path class="cls-25" d="m102.15,38.66c.08,1.85.12,3.7.25,5.54.23,3.15.52,6.29.8,9.44.14,1.56.27,3.13.48,4.68.34,2.51.68,5.03,1.11,7.53,1.17,6.72,2.83,13.32,5.05,19.78,3.37,9.81,8.16,18.85,14.5,27.05,3.22,4.16,6.91,7.89,10.84,11.38,4.01,3.57,8.02,7.14,11.14,11.57,4.33,6.15,7.26,12.87,8.17,20.37.3,2.51.24,5.07.34,7.61-.21,0-.43.01-.64.02-.2-.25-.36-.57-.61-.75-1.86-1.35-3.65-2.84-5.64-3.97-3.08-1.74-6.22-3.42-9.49-4.77-3.86-1.59-7.88-2.78-11.83-4.18-5.74-2.03-10.86-5.14-15.29-9.29-8.45-7.9-13.1-17.84-15.13-29.09-.33-1.81-.5-3.66-.76-5.48,0-.04-.21-.06-.32-.08.1-2.51.26-5.01.29-7.52.06-5.85-.08-11.7.1-17.54.14-4.47.6-8.93,1.02-13.38.37-3.94.84-7.88,1.33-11.81.31-2.55.69-5.08,1.12-7.61.25-1.49.68-2.95,1.02-4.42.31-.98.63-1.96.94-2.94.08-.48.15-.95.23-1.43.56.09.84-.22.98-.71Z"/>
          <path class="cls-27" d="m85.45,56.11c-.37.69-.71,1.4-1.13,2.06-1.68,2.68-3.44,5.31-5.07,8.01-1.69,2.79-3.36,5.6-4.87,8.5-1.77,3.41-2.84,7.06-3.14,10.91-.16,1.99-.4,3.99-.32,5.97.11,2.52.43,5.05.79,7.55.51,3.52,1.15,7.02,1.72,10.53.38,2.35.85,4.69,1.03,7.06.18,2.37.11,4.77.05,7.15-.07,2.71-.79,5.3-1.76,7.83-1.32,3.44-3.35,6.43-5.69,9.23-3.1,3.71-6.85,6.75-10.59,9.78-3.52,2.85-7.05,5.7-10.52,8.61-3.47,2.91-6.88,5.9-10.31,8.87-.46.4-.84.88-1.3,1.28-.2.18-.5.25-.75.37.33-1.58.66-3.17,1-4.75.49-1.76.99-3.52,1.48-5.28.15-.54.3-1.07.46-1.61,1.11-4.08,2.21-8.16,3.32-12.23.07-.3.14-.61.21-.91.01-.18.02-.35.03-.53.05-.07.1-.13.15-.2.03-.14.05-.28.08-.42.04-.1.07-.2.11-.31.02-.21,0-.43.06-.62.51-1.73,1.07-3.44,1.53-5.18,1.83-6.82,3.62-13.64,5.43-20.46,1.1-4.13,2.24-8.24,3.32-12.37,2.12-8.11,4.04-16.3,7.06-24.14,1.18-3.06,2.84-5.94,4.28-8.9.13.51.1,1.26.43,1.49.69.48.93-.5,1.43-.73.05-.02.06-.12.11-.14.46-.18,1.11-.62,1.37-.46,1.21.75,1.93-.19,2.76-.65.41-.23.45-.63-.1-.88-.3-.14-.56-.34-.84-.52.32-.15.64-.33.98-.46.25-.09.63-.02.78-.18.72-.75,1.41-.59,2.05.02.4-.5.69-1.19,1.11-1.29.87-.22.9-.71.88-1.39-.02-.78,1.18-2.15,1.92-2.4,1.07-.37,2.14-.79,2.64-2.01.54.24,1.01.23,1.22-.43.03-.1.19-.25.24-.23,1.07.34.84-.5.94-1.03.05-.27.09-.54.16-.8.19-.74.73-.91,1.33-.43.19.15.41.28.74.5.05-.41.11-.64.09-.87-.08-.87.17-1.41,1.18-1.35.14,0,.38-.34.43-.55.08-.32.03-.66.03-1,.01-.61.25-.86.86-.56.19.09.4.14.59.21,0,.12,0,.24,0,.36Z"/>
          <path class="cls-29" d="m154.19,163.64c.21,0,.43-.01.64-.02,2.87,2.3,5.74,4.61,8.61,6.91.23.19.47.36.71.55-1.37.53-2.53,1.64-4.15,1.47-.21-.02-.57.06-.64.2-.33.7-.85.95-1.61.91-.16,0-.33.26-.5.4.15.16.28.42.46.45.66.13,1.33.19,2.1.29.19.29.37.9.78,1.14.66.39,1.48.49,2.19.8.38.16.68.49,1.02.74-1.6.28-3.2.54-4.79.85-9.42,1.84-18.27,5.19-26.52,10.08-6.96,4.12-13.42,8.93-19.25,14.55-2.68,2.58-5.32,5.21-7.98,7.82-.16-.3-.38-.58-.46-.89-.55-2.26-1.11-4.52-1.6-6.79-1.39-6.43-2.77-12.86-4.1-19.3-.95-4.61-1.81-9.23-2.74-13.85-.89-4.47-1.79-8.93-2.73-13.39-.31-1.49-.72-2.96-1.09-4.44-.13-1.39-.26-2.78-.4-4.17,0-.07-.11-.14-.16-.21,0-1.88-.07-3.77.03-5.65.17-3.25.44-6.5.69-9.76.11-1.41.24-2.83.4-4.24.05-.46-.09-1.11.72-1.12.2,1.25.33,2.52.6,3.75.96,4.44,2.28,8.77,4.08,12.96,4.16,9.66,10.52,17.29,20,22.15,4.8,2.46,9.93,3.58,15.28,3.75,1.62.05,3.26-.17,4.87-.35,5.62-.62,10.65-2.92,15.52-5.61Z"/>
          <path class="cls-13" d="m154.19,163.64c-4.88,2.69-9.9,4.99-15.52,5.61-1.62.18-3.25.4-4.87.35-5.35-.16-10.48-1.28-15.28-3.75-9.47-4.86-15.84-12.49-20-22.15-1.8-4.19-3.12-8.52-4.08-12.96-.27-1.24-.4-2.5-.6-3.75-.06-3.77-.29-7.55-.13-11.32.11-2.67.73-5.33,1.13-7.99.08-.56.19-1.11.29-1.66.11.03.31.04.32.08.26,1.83.44,3.67.76,5.48,2.04,11.26,6.69,21.19,15.13,29.09,4.43,4.14,9.55,7.25,15.29,9.29,3.94,1.4,7.97,2.59,11.83,4.18,3.26,1.35,6.41,3.03,9.49,4.77,1.99,1.13,3.78,2.62,5.64,3.97.25.18.41.5.61.75Z"/>
          <path class="cls-10" d="m127.44,69.96c-1.3-.21-2.63-.34-3.91-.65-1.9-.46-3.78-1.04-5.66-1.56-.17-.05-.38.02-.57.04-1.13-1.02-2.03-2.22-2.79-3.69.46-.2.83-.4,1.22-.51,4.21-1.27,8.34-2.74,12.22-4.85,3.53-1.92,6.8-4.22,9.79-6.89,5.93-5.31,12.41-9.69,20.04-12.2,2.54-.83,5.15-1.34,7.84-1.41.97-.02,1.93-.1,2.9-.15.31.12.62.25.93.37.03-.06.06-.13.09-.19l-.62-.39c-.59-.5-1.2-.98-1.76-1.51-.28-.27-.44-.65-.66-.97,1.48.36,3,.63,4.45,1.09,4.6,1.47,8.65,3.95,12.3,7.05,4.57,3.89,7.63,8.76,8.92,14.64.64,2.92,1.03,5.89,1.44,8.86.52,3.7,2.52,6.56,4.97,9.19.4.43.86.82,1.29,1.22.04.27.1.53.12.8.04.55.13,1.11.09,1.66-.08.9-.25,1.78-.37,2.67,0,.06,0,.13.03.17.5.78,1.02,1.54,1.5,2.33.2.33.31.71.46,1.07-.67-.3-1.34-.6-2-.9.09-1.09-.6-.61-1.09-.54-5.65-2.89-10.34-6.75-12.39-13.01-.67-2.04-.97-4.26-1.04-6.41-.23-7.04-2.36-13.34-6.94-18.71-1.83-2.14-3.91-4.06-5.84-6.11-.54-.57-1.02-.53-1.59-.13-3.15,2.17-6.3,4.33-9.46,6.48-2.93,2-5.88,3.97-8.81,5.98-3.42,2.35-6.83,4.73-10.24,7.1-2.35,1.58-4.71,3.16-7.06,4.75-2.6,1.76-5.19,3.53-7.78,5.3Z"/>
          <path class="cls-5" d="m62.1,71.91c-1.44,2.96-3.1,5.84-4.28,8.9-3.02,7.84-4.94,16.02-7.06,24.14-1.08,4.13-2.22,8.24-3.32,12.37-1.82,6.82-3.61,13.64-5.43,20.46-.47,1.74-1.03,3.45-1.53,5.18-.06.2-.04.42-.06.62-.04.1-.07.2-.11.31-.03.14-.05.28-.08.42-.05.07-.1.13-.15.2-.01.18-.02.35-.03.53-.22.11-.43.22-.65.33.14.19.29.39.43.58-1.11,4.08-2.21,8.16-3.32,12.23-.33.2-.85.34-.92.61-.08.27.29.66.47,1-.49,1.76-.99,3.52-1.48,5.28-.16-.44-.51-.92-.43-1.31.14-.74.1-1.32-.39-1.93-.26-.32-.39-.84-.37-1.26.05-1.07.18-2.14.33-3.21.18-1.22.38-2.43,1.32-3.38,1.08-1.09,1.66-2.43,1.57-3.98-.02-.42-.28-.83-.34-1.25-.1-.66-.12-1.33-.18-1.99-.41.08-.86.17-1.31.27.05-.13.1-.26.15-.39.02-.06.03-.12.05-.17.01-.3.03-.59.04-.89.48-.12,1.25.34,1.38-.45.24-1.38.33-2.78,1.1-4.03.2-.33.11-.83.24-1.23.09-.3.25-.69.49-.81.85-.43.84-1.05.63-1.83-.12-.47-.21-1.04-.06-1.48.63-1.88.82-3.73-.03-5.59.01-.09.03-.17.04-.26.91-.32,1.2-1.11,1.43-1.93.19-.65.34-1.32.56-1.97.15-.45.43-.85.54-1.3.27-1.12.47-2.27.72-3.4.28-1.3.12-1.79-.74-2.16.22-.97.44-1.94.65-2.92.03-.08.06-.15.09-.23-.03-.05-.02-.09.02-.13.05-.31.1-.61.15-.92.07-.24.14-.48.22-.72.55-.58,1.28-1.07,1.6-1.75.3-.65,0-1.58.29-2.25.76-1.75,1.01-3.56,1-5.43,0-.5-.24-1.01-.36-1.51.24-1.15.48-2.31.72-3.46.3-.23.76-.4.88-.7.48-1.22.91-2.47,1.26-3.74.18-.65.22-1.4-.64-1.73.37-1.71.72-3.42,1.1-5.12.66-2.96,1.21-5.95,2.02-8.87,1.35-4.9,2.86-9.76,5.48-14.17,2.18-3.66,4.9-6.9,8.23-9.53,4.21-3.32,8.55-6.48,12.91-9.62,3.08-2.21,6.27-4.26,9.41-6.38.45-.3.94-.54,1.41-.81.09.02.23.02.25.07.48,1.16,1.09,1.16,1.98.36.41-.37,1.09-.54,1.31.37-.06.05-.12.1-.17.14-.92.04-1.73.81-2.05,1.95-.14.16-.26.33-.41.48-5.99,6.04-12.04,12.03-17.96,18.14-2.1,2.16-3.9,4.62-5.83,6.94-.07.11-.14.21-.22.32-.21.31-.42.62-.62.92-.28.42-.56.85-.83,1.27-.19.31-.39.62-.58.92-.17.29-.35.58-.52.87Z"/>
          <path class="cls-15" d="m101.17,39.37c-.08.48-.15.95-.23,1.43-.41.97-.83,1.93-1.24,2.9-.64,1.75-1.24,3.53-1.94,5.26-2.42,5.96-4.89,11.89-7.3,17.85-1.22,3.04-2.36,6.1-3.5,9.18-1.48,4.01-2.49,8.14-2.95,12.4-.25,2.37-.35,4.76-.72,7.1-.89,5.55-1.91,11.09-2.88,16.63-.18.05-.37.1-.55.15-.32-2.84-.68-5.67-.96-8.51-.18-1.86-.29-3.72-.37-5.59-.14-3.06-.24-6.13-.35-9.2,0-.21.04-.42.06-.63.01-.07.02-.14.04-.2.01-.17.03-.34.04-.51.01-.04.02-.08.01-.13.3-4.08,1.08-8.07,2.84-11.77,2.07-4.35,4.27-8.63,6.51-12.89,2.88-5.5,5.82-10.96,8.77-16.43,1.32-2.45,2.71-4.86,4.07-7.29.22.09.43.17.65.26Z"/>
          <path class="cls-5" d="m290.95,131.52c-.05.07-.11.14-.16.21-.37.09-.76.15-1.12.28-.68.24-1.32-.05-1.35-.63-.05-.83.15-1.72.46-2.51.24-.6.85-1.05,1.21-1.62.61-.96.52-1.94-.13-2.46.08-.36.16-.72.24-1.09.23-.21.68-.45.65-.62-.13-.9.59-2.03-.64-2.66-.14-.48-.28-.97-.42-1.45.37-.45.08-.54-.31-.57,0,0-.02-.04-.02-.04-.04-.52.13-1.2-.8-1.01-2.81-2.68-6.15-3.25-9.9-2.81-4.14.48-7.99,1.96-11.95,3.06-1,.28-2.04.52-3.07.61-.75.06-1.58-.02-2.29-.29-1.28-.48-2.49-1.15-3.73-1.74l-.03-.4c2.03-1.18,3.99-2.51,6.1-3.51,2.89-1.36,5.98-2.1,9.19-2.23,1.66-.06,3.31-.17,4.97-.26.8.01,1.6.02,2.4.04,1.49.19,2.98.39,4.48.57.32.04.65,0,.98-.02.06,0,.12,0,.18.01.06.02.12.04.17.06,1.69.31,3.4.54,5.07.95,2.31.57,4.28,1.77,5.05,4.13.41,1.28.54,2.75.4,4.09-.49,4.51-2.9,8.18-5.47,11.76-.04.05-.09.1-.13.15Z"/>
          <path class="cls-22" d="m171.82,89.51c-3.04,1.09-6.06.84-9.04-.21-2.79-.98-5.08-2.78-7.42-4.51-3.09-2.29-6.17-4.59-9.33-6.78-1.59-1.1-3.33-1.97-5.01-2.94.11-.11.27-.34.33-.32.96.34,1.89-.15,2.23-.77.58-1.04,1.21-1.59,2.39-1.56.1,0,.3-.4.27-.59-.03-.16-.41-.42-.48-.38-1.18.67-2.03-.05-3.05-.5-.66-.29-1.27-.42-1.5-1.18,2.48-.54,4.96-1.08,7.44-1.62,4.93-1.06,9.61-2.7,13.72-5.75.9-.67,2.04-1.02,3.07-1.52.33.22.65.43,1.05.7-.16.12-.3.26-.47.33-1.25.5-2.51.97-3.76,1.47-.16.06-.35.19-.41.33-.76,1.76-2.57,2.18-3.98,3.08-1.28.81-2.73,1.35-4.1,2.02-.18.09-.33.24-.6.43.38.13.64.22.97.33-.26.68.68,1.39-.15,2.05-.19-.11-.41-.36-.56-.32-2.49.54-4.98,1.13-7.57,1.72.16.18.23.31.35.38,2.53,1.59,5.03,3.23,7.62,4.72,1.87,1.09,3.86,1.98,5.79,2.96.96.31,1.93.62,2.89.92.24.87.81,1.08,1.7,1.08,1.91-.01,3.82.1,5.73.2.23.01.57.19.67.38.39.81.7,1.64,1.03,2.48.18.44.24.96.51,1.32.44.57.63,1.01-.07,1.51-.14.1-.17.36-.25.55Z"/>
          <path class="cls-28" d="m64.88,67.6c1.94-2.32,3.74-4.77,5.83-6.94,5.92-6.11,11.96-12.1,17.96-18.14.15-.15.27-.32.41-.48.68-.65,1.36-1.3,2.05-1.95.06-.05.12-.1.17-.14,2.18-2.07,4.37-4.13,6.55-6.2.79-.74,1.57-1.48,2.36-2.22.24-.16.48-.33.72-.49.08.02.16.04.24.06-.11.52-.11,1.1-.35,1.54-.78,1.4-1.64,2.76-2.51,4.1-2.71,4.19-5.43,8.37-8.18,12.53-.45.69-1.04,1.3-1.56,1.94-.52-.37-1.03-1.04-1.44.16-.15.43-.54.44-.96.12-.63-.49-1.44-.27-1.61.39-.07.28-.06.58-.09.93-.86-.13-1.19.36-1.55,1-.3.54-.78,1.13-1.32,1.34-.86.33-1.69.51-1.71,1.65,0,.17-.19.43-.35.5-.86.36-1.74.67-2.61,1.01-.18.07-.34.21-.5.34-.77.66-1.54,1.32-2.3,1.99-.11.1-.2.22-.28.35-.38.56-.75,1.12-1.12,1.69-.3.47-.62.72-1.18.3-.12-.09-.49.04-.69.16-.23.14-.35.48-.58.55-1.62.49-1.94,2.15-2.67,3.29-.58.91-1.28,1.1-1.87,1.46-.33-.33-.59-.58-.84-.83Z"/>
          <path class="cls-6" d="m165.43,60.87c-1.03.5-2.17.85-3.07,1.52-4.11,3.05-8.79,4.69-13.72,5.75-2.48.54-4.96,1.08-7.44,1.62-.15-.01-.29-.03-.59-.06.97-.62,1.85-1.16,2.7-1.73,5.07-3.43,10.18-6.8,15.18-10.33,3.05-2.15,6.29-3.34,10.04-2.98-.48.34-1.08.59-1.4,1.04-.4.57-.64,1.28-.83,1.97-.28,1.02-.46,2.07-.69,3.11l-.19.08Z"/>
          <path class="cls-31" d="m260.19,131.5c1.99,2.39,4.44,4.21,7.15,5.66,2.17,1.16,4.43,2.08,6.98,2.04,2.03-.03,3.89-.47,5.49-1.79.27-.23.6-.39,1.05-.66.1.62.22,1.14.25,1.66.14,2.53-.4,4.93-1.41,7.24-.24.55-.59.85-1.2.62-3.91-1.47-7.96-2.64-11.49-4.95-3.46-2.26-6.39-5.09-8.53-8.67.57-.38,1.14-.77,1.7-1.15Z"/>
          <path class="cls-29" d="m64.88,67.6c.25.25.51.5.84.83.59-.37,1.29-.56,1.87-1.46.73-1.14,1.06-2.79,2.67-3.29.23-.07.36-.42.58-.55.2-.12.56-.25.69-.16.56.43.88.17,1.18-.3.37-.57.74-1.13,1.12-1.69.08-.12.17-.25.28-.35.76-.67,1.53-1.33,2.3-1.99.15-.13.31-.26.5-.34.87-.34,1.75-.65,2.61-1.01.16-.07.34-.32.35-.5.03-1.15.86-1.32,1.71-1.65.54-.21,1.02-.81,1.32-1.34.36-.63.69-1.12,1.55-1,.03-.35.02-.65.09-.93.17-.66.98-.88,1.61-.39.42.32.82.32.96-.12.4-1.19.91-.53,1.44-.16-.07.18-.13.36-.2.54-1.11.22-2.02,1.53-2.01,2.92,0,0,0,0,0,0-.69.04-1.24.19-.92,1.09-.2-.07-.41-.12-.59-.21-.61-.29-.85-.05-.86.56,0,.33.05.68-.03,1-.05.22-.29.56-.43.55-1.01-.05-1.26.48-1.18,1.35.02.22-.05.46-.09.87-.33-.22-.54-.34-.74-.5-.6-.48-1.14-.31-1.33.43-.07.26-.11.53-.16.8-.1.53.13,1.37-.94,1.03-.05-.02-.21.14-.24.23-.22.66-.68.68-1.22.43-.5,1.22-1.57,1.64-2.64,2.01-.74.25-1.94,1.62-1.92,2.4.02.68-.01,1.17-.88,1.39-.43.11-.71.8-1.11,1.29-.64-.62-1.33-.77-2.05-.02-.15.16-.53.09-.78.18-.34.12-.65.3-.98.46.28.18.54.38.84.52.55.26.51.66.1.88-.83.46-1.56,1.4-2.76.65-.26-.16-.9.29-1.37.46-.05.02-.06.12-.11.14-.5.23-.74,1.22-1.43.73-.33-.23-.29-.97-.43-1.49.17-.29.35-.58.52-.87.61-.05.97-.25.58-.92.28-.42.56-.85.83-1.27.72.03.64-.47.62-.92.07-.11.14-.21.22-.32Z"/>
          <path class="cls-18" d="m213.71,85.68c5.71,2.68,11.65,4.76,17.6,6.83.73.26,1.45.55,2.18.82-.2.28-.36.6-.61.83-.74.71-1.5,1.38-2.26,2.06-2.24-.74-4.49-1.46-6.72-2.22-5.5-1.87-11-3.75-16.5-5.63-.4-.14-.78-.32-1.17-.48.23-.26.41-.67.69-.74,1.24-.32,2.51-.54,3.76-.81,1.01-.22,2.02-.45,3.03-.67Z"/>
          <path class="cls-30" d="m165.62,60.8c.22-1.04.41-2.09.69-3.11.19-.68.42-1.4.83-1.97.32-.45.92-.7,1.4-1.04,2.86.13,5.04,1.57,6.91,3.58,2.79,2.99,4.3,6.63,5.26,10.54.76,3.11,1.47,6.23,2.19,9.35.01.05-.01.12-.06.4-.45-.92-.81-1.68-1.18-2.44-1.46-2.96-2.93-5.91-4.4-8.87-.63-.93-1.27-1.86-1.9-2.8,0,0-.02-.03-.02-.03-.56-.59-1.13-1.18-1.69-1.78-.24-.17-.47-.35-.71-.52-.5-.28-1-.56-1.49-.84-.66-.21-1.32-.42-1.99-.63-.19-.04-.37-.08-.56-.11-.89,0-1.77,0-2.66,0-.15.1-.3.2-.44.3l-.17-.02Z"/>
          <path class="cls-4" d="m34.78,147.02c.45-.09.9-.18,1.31-.27.05.66.08,1.33.18,1.99.06.42.32.83.34,1.25.09,1.55-.49,2.89-1.57,3.98-.94.95-1.14,2.16-1.32,3.38-.15,1.06-.28,2.14-.33,3.21-.02.42.12.94.37,1.26.49.61.54,1.19.39,1.93-.08.39.28.87.43,1.31-.33,1.58-.66,3.17-1,4.75-.29.46-.52.96-.87,1.36-1.41,1.58-2.87,3.12-4.3,4.68-.13-.08-.25-.16-.38-.24-.02-.19-.09-.39-.04-.57,1.2-4.99,2.43-9.97,3.63-14.96.61-2.57,1.13-5.16,1.75-7.72.43-1.79.94-3.55,1.42-5.33Z"/>
          <path class="cls-27" d="m163.8,177.48c-.34-.25-.64-.58-1.02-.74-.72-.3-1.53-.41-2.19-.8-.4-.24-.59-.85-.78-1.14-.77-.1-1.44-.16-2.1-.29-.18-.04-.31-.29-.46-.45.17-.14.34-.41.5-.4.75.04,1.27-.2,1.61-.91.07-.14.43-.22.64-.2,1.62.16,2.78-.94,4.15-1.47,2.76,1.43,5.5,2.89,8.56,3.62,1.53.24,3.05.48,4.58.72-.08.26-.15.53-.21.71.56.22,1,.39,1.44.56-.24.38-.48.76-.71,1.13-.36-.11-.72-.21-1.07-.32.2-.07.41-.12.59-.22.23-.13.42-.3.64-.45-.26-.1-.52-.31-.78-.3-3.24.17-6.49.36-9.73.57-1.22.08-2.44.25-3.66.38Z"/>
          <path class="cls-8" d="m213.71,85.68c-1.01.22-2.02.45-3.03.67-1.26.27-2.52.49-3.76.81-.28.07-.46.49-.69.74-1.51-.58-3.02-1.17-4.53-1.75-.15-.36-.26-.74-.46-1.07-.48-.79-1-1.56-1.5-2.33-.03-.05-.04-.12-.03-.17.13-.89.3-1.78.37-2.67.05-.55-.04-1.11-.09-1.66-.02-.27-.08-.53-.12-.8,4.23,3.39,8.91,6.03,13.85,8.24Z"/>
          <path class="cls-18" d="m152.53,212.33c-.37-1.27-.79-2.54-1.11-3.82-.25-1.01-.99-1.46-1.8-1.9,2.7-4.38,5.75-8.5,9.3-12.23.85-.9,1.7-1.8,2.54-2.7.04-.04.09-.09.13-.13,0,0,.05-.04.05-.04.29.12.58.24.87.36-1.27,2.06-2.59,4.08-3.8,6.17-2.46,4.26-4.36,8.78-5.86,13.46-.09.28-.22.56-.33.83Z"/>
          <path class="cls-4" d="m159.61,81.07c-1.93-.98-3.92-1.87-5.79-2.96-2.58-1.5-5.09-3.14-7.62-4.72-.11-.07-.19-.2-.35-.38,2.59-.59,5.07-1.18,7.57-1.72.16-.03.37.21.56.32.66,1.83,1.19,3.74,2.54,5.21.97,1.06,2.06,2.01,3.09,3,.42.42.15.83,0,1.25Z"/>
          <path class="cls-30" d="m241.57,96.04c3.29,1.11,6.58,2.23,9.87,3.34-.1.11-.18.28-.3.31-1.53.36-1.75,1.64-2.07,2.86-2.31-.8-4.61-1.6-6.92-2.4-1.16-.4-2.33-.79-3.49-1.19.97-.98,1.94-1.95,2.91-2.93Z"/>
          <path class="cls-5" d="m170.9,65.7c.89-.21,1.16.69,1.75,1,.07.09.14.17.21.26v.06s.04.03.04.03c.04.08.09.16.13.24,0,0-.01,0-.01,0,.09.47.18.94.27,1.41-.12.7-.05,1.51-.39,2.09-1,1.7-2.22,1.77-4.19,1.42-.23-.04-.45-.16-.68-.25-.5-.72-1-1.45-1.5-2.17,0-.48,0-.96,0-1.44.21-.48.42-.96.62-1.44.64-.62,1.31-1.19,2.29-1.15.49-.01.97-.03,1.46-.04Z"/>
          <path class="cls-17" d="m249.07,102.55c.32-1.22.55-2.5,2.07-2.86.12-.03.2-.2.3-.31,2.04.64,4.08,1.28,6.12,1.93.57.18,1.13.37,1.82.6-.99,1.04-1.86,1.99-2.8,2.87-.19.18-.7.16-1.01.05-2.18-.74-4.34-1.52-6.5-2.28Z"/>
          <path class="cls-4" d="m241.57,96.04c-.97.98-1.94,1.95-2.91,2.93-2.68-.91-5.36-1.82-8.04-2.73.76-.68,1.52-1.36,2.26-2.06.24-.23.41-.55.61-.83.98.28,1.96.53,2.92.86,1.73.59,3.44,1.23,5.16,1.84Z"/>
          <path class="cls-4" d="m176.36,81.46h-.55c-1.15.25-2.31.49-3.46.74-1.27.1-2.55.21-3.82.31,0-.29,0-.58,0-.87.06,0,.12,0,.19,0,.24-.05.49-.1.73-.15,2.26-.78,4.35-1.83,5.84-3.8.4-.53.75-1.09,1.19-1.74.65.7,1.27,1.38,1.91,2.05.6.64,1.24,1.25,1.83,1.9.13.15.11.42.17.64l-4.01.91Z"/>
          <path class="cls-23" d="m127.44,69.96c2.59-1.77,5.18-3.54,7.78-5.3,2.35-1.59,4.71-3.16,7.06-4.75.17.95-.26,1.46-1.12,1.9-1.26.65-2.61,1.25-3.27,2.67-.07.14-.26.25-.42.32-1.58.62-2.72,1.82-3.32,3.28-.51,1.23-.97,2.05-2.42,1.86-.1-.01-.21.09-.37.16.19.46.37.89.55,1.32-1.49-.49-2.98-.98-4.47-1.47Z"/>
          <path class="cls-4" d="m289.85,124.8c.66.52.74,1.5.13,2.46-.36.57-.97,1.01-1.21,1.62-.31.78-.51,1.68-.46,2.51.04.58.67.86,1.35.63.36-.13.74-.19,1.12-.28-1.66,1.84-3.32,3.68-4.98,5.51-.42.47-.87.91-1.31,1.37,0,0-.06,0-.06,0l-.03.06c-.06-.02-.12-.02-.18-.02.45-1.28.85-2.57,1.37-3.82,1.39-3.35,2.83-6.68,4.26-10.02Z"/>
          <path class="cls-4" d="m97.85,33.75c-2.18,2.07-4.37,4.13-6.55,6.2-.21-.9-.89-.74-1.31-.37-.9.8-1.5.81-1.98-.36-.02-.05-.17-.05-.25-.07,1.86-1.23,3.71-2.47,5.58-3.67,1.29-.82,2.63-1.58,3.95-2.37.19.21.37.43.56.64Z"/>
          <path class="cls-4" d="m38.78,130.16c.84,1.86.65,3.71.03,5.59-.15.44-.06,1.01.06,1.48.2.79.21,1.4-.63,1.83-.24.12-.4.51-.49.81-.13.4-.03.9-.24,1.23-.77,1.25-.87,2.64-1.1,4.03-.13.78-.91.33-1.38.45.66-2.82,1.31-5.64,1.98-8.46.22-.94.48-1.88.72-2.82.35-1.38.71-2.75,1.06-4.13Z"/>
          <path class="cls-30" d="m260.19,131.5c-.57.38-1.14.77-1.7,1.15-.87-1.68-1.97-3.29-2.55-5.07-.98-3-1.64-6.11-2.43-9.17,0-.03.05-.09.2-.32.36,1.04.59,1.99,1,2.86,1.36,2.96,2.76,5.9,4.19,8.82.31.64.85,1.16,1.29,1.74Z"/>
          <path class="cls-4" d="m41.33,119.14c.86.37,1.02.86.74,2.16-.25,1.13-.45,2.27-.72,3.4-.11.45-.39.86-.54,1.3-.21.65-.36,1.31-.56,1.97-.24.82-.52,1.61-1.43,1.93.84-3.59,1.67-7.17,2.51-10.76Z"/>
          <path class="cls-4" d="m44.98,103.29c.13.5.36,1.01.36,1.51.01,1.87-.24,3.68-1,5.43-.29.67.02,1.6-.29,2.25-.32.68-1.05,1.18-1.6,1.75.45-2.03.88-4.06,1.35-6.08.37-1.62.78-3.24,1.18-4.86Z"/>
          <path class="cls-22" d="m184.2,96.89c-.68-.1-1.1-.4-1.09-1.17.03-3.73.03-7.46.04-11.2,0-.12.04-.24.07-.36.15.27.42.54.42.81.03,2.55.02,5.11.02,7.66,0,.89-.06,1.79.03,2.67.05.54.34,1.06.51,1.59Z"/>
          <path class="cls-17" d="m168.53,81.64c0,.29,0,.58,0,.87-1.04-.03-2.08-.05-3.12-.08-.05-.04-.1-.04-.15,0-.43-.02-.86-.05-1.29-.07-.12-.05-.23-.09-.35-.14-.17-.02-.35-.04-.52-.06-.11,0-.22-.02-.34-.02-.09-.05-.17-.09-.26-.14-.96-.31-1.93-.62-2.89-.92.15-.42.42-.83,0-1.25,1.78.64,3.53,1.37,5.34,1.89.73.21,1.59-.05,2.4-.08.39-.01.79,0,1.18.01Z"/>
          <path class="cls-17" d="m177.3,175.41c-1.53-.24-3.05-.48-4.58-.72.25-.42.5-.83.75-1.25,1.91.66,3.83,1.32,5.99,2.07-.89-.04-1.52-.07-2.16-.1Z"/>
          <path class="cls-4" d="m47.19,93.65c.86.34.82,1.08.64,1.73-.35,1.27-.77,2.52-1.26,3.74-.12.3-.58.47-.88.7.47-2.01.94-4.02,1.41-6.03.01-.05.06-.1.09-.15Z"/>
          <path class="cls-22" d="m176.36,81.46l4.01-.91c.04.26.08.53.13.91-.75.35-1.51.77-2.31,1.08-.94.36-1.6-.06-1.84-1.07Z"/>
          <path class="cls-32" d="m92,147.74c.06.07.15.13.16.21.14,1.39.27,2.78.4,4.17-.06.16-.11.33-.19.48-.36.58-.73,1.14-1.09,1.72-.02-.19-.04-.39-.07-.58.01-.72.03-1.44.04-2.16.01-.12.02-.24.03-.36.09-.25.18-.49.27-.74.03-.31.06-.61.09-.92.12-.61.24-1.22.36-1.82Z"/>
          <path class="cls-22" d="m172.35,82.2c1.15-.24,2.31-.49,3.46-.73-.47,1.65-1.12,2.04-2.8,1.57-.28-.08-.44-.55-.66-.84Z"/>
          <path class="cls-19" d="m162.52,191.86c-.29-.12-.58-.24-.87-.36,1.14-1.17,2.27-2.34,3.41-3.5.06.08.12.17.18.25-.91,1.2-1.81,2.41-2.72,3.61Z"/>
          <path class="cls-4" d="m243.58,181.05c1.48-.34,2.95-.7,4.44-1.02.2-.04.43.09.65.13-1.75.57-3.5,1.14-5.24,1.71.05-.28.1-.55.15-.83Z"/>
          <path class="cls-22" d="m134.8,72.37c-.54-.19-1.08-.38-1.63-.58-.1-.34-.19-.67-.29-1.01.64-.38,1.79-.31,2.24.2.12.14.1.47.04.69-.06.25-.24.47-.37.7Z"/>
          <path class="cls-4" d="m91.28,151.22c-.01.12-.02.24-.03.36-.06.47-.13.94-.19,1.41-.22.4-.44.81-.66,1.21-.01-.49.03-.98-.06-1.45-.05-.23-.35-.41-.53-.62.61-.85,1.22-1.71,1.83-2.56-.03.31-.06.61-.09.92-.09.25-.18.49-.27.74Z"/>
          <path class="cls-32" d="m101.17,39.37c-.22-.09-.43-.17-.65-.26.54-.9,1.08-1.81,1.62-2.71,0,.75,0,1.5.01,2.25-.14.49-.42.8-.98.71Z"/>
          <path class="cls-17" d="m97.85,33.75c-.19-.21-.37-.43-.56-.64.97-.53,1.94-1.05,2.91-1.58-.79.74-1.57,1.48-2.36,2.22Z"/>
          <path class="cls-4" d="m290.1,120.43c1.23.63.52,1.76.64,2.66.02.17-.42.41-.65.62,0-1.09,0-2.19,0-3.28Z"/>
          <path class="cls-22" d="m175.35,64.43c.63.93,1.27,1.86,1.9,2.8h-1.32c.18-.45.28-.71.41-1.03-.83-.31-1.03-.98-.99-1.77Z"/>
          <path class="cls-27" d="m86.36,54.66c-.01-1.38.89-2.7,2.01-2.92-.67.97-1.34,1.95-2.01,2.92Z"/>
          <path class="cls-22" d="m170.9,65.7c-.49.01-.97.03-1.46.04.03-1.23.44-1.5,1.55-.97-.03.3-.06.61-.09.93Z"/>
          <path class="cls-22" d="m166.53,69.78c.5.72,1,1.45,1.5,2.17-.89.02-1.79-.56-1.99-1.4-.05-.21.31-.51.48-.77Z"/>
          <path class="cls-22" d="m173.29,68.69c-.09-.47-.18-.94-.27-1.41.33-.02.65-.03.96-.05.33,1.01.22,1.23-.69,1.45Z"/>
          <path class="cls-22" d="m173.65,62.63c.56.59,1.13,1.19,1.69,1.78-1.24-.19-1.72-.69-1.69-1.78Z"/>
          <path class="cls-28" d="m99.69,43.7c.41-.97.83-1.93,1.24-2.9-.31.98-.63,1.96-.94,2.94-.1-.01-.2-.03-.3-.04Z"/>
          <path class="cls-22" d="m172.38,83.7c.34.4.67.64.63.79-.06.28-.34.5-.53.75-.16-.21-.42-.4-.46-.63-.04-.2.17-.45.36-.91Z"/>
          <path class="cls-22" d="m171.44,61.27c.5.28,1,.56,1.49.84-.37.09-.86.36-1.09.22-.26-.16-.28-.69-.41-1.07Z"/>
          <path class="cls-32" d="m79.86,112.26c.18-.05.37-.1.55-.15-.06.54-.13,1.08-.19,1.62-.12,0-.24-.01-.36-.02v-1.44Z"/>
          <path class="cls-28" d="m85.45,55.75c-.33-.9.23-1.05.92-1.09-.31.48-.61.97-.92,1.45,0-.12,0-.24,0-.36Z"/>
          <path class="cls-22" d="m167.15,66.89c-.21.48-.42.96-.62,1.44-.6-.95-.49-1.22.62-1.44Z"/>
          <path class="cls-32" d="m165.25,188.25c-.06-.08-.12-.17-.18-.25.35-.3.71-.6,1.06-.9-.29.38-.59.76-.88,1.15Z"/>
          <path class="cls-32" d="m225.16,184.46c1.17-.02,2.34-.03,3.51-.05-1.17.02-2.34.03-3.51.05Z"/>
          <path class="cls-8" d="m198.59,84.72c.49-.07,1.18-.56,1.09.54-.36-.18-.73-.36-1.09-.54Z"/>
          <path class="cls-4" d="m288.54,117.35c.93-.19.76.49.8,1.01-.27-.34-.53-.68-.8-1.01Z"/>
          <path class="cls-32" d="m280.22,109.81c-.8-.01-1.6-.02-2.4-.04.8.01,1.6.02,2.4.04Z"/>
          <path class="cls-32" d="m133.37,25.29c-.55-.02-1.11-.05-1.66-.07.55.02,1.11.05,1.66.07Z"/>
          <path class="cls-22" d="m183.14,81.78c-.07,0-.15,0-.22,0,.02-.2.05-.4.07-.6.07,0,.15,0,.22,0-.02.2-.04.4-.06.61Z"/>
          <path class="cls-4" d="m289.37,118.41c.39.03.68.11.31.57-.1-.19-.21-.38-.31-.57Z"/>
          <path class="cls-4" d="m42.24,114.95c-.05.31-.1.61-.15.92.05-.31.1-.61.15-.92Z"/>
          <path class="cls-17" d="m169.44,81.49c-.24.05-.49.1-.73.15.24-.05.49-.1.73-.15Z"/>
          <path class="cls-22" d="m168.89,60.52c.19.04.37.08.56.11-.19-.04-.37-.08-.56-.11Z"/>
          <path class="cls-22" d="m172.86,66.96c-.07-.09-.14-.17-.21-.26.07-.1.14-.21.21-.31.05.02.09.04.14.05-.04.17-.09.34-.13.52Z"/>
          <path class="cls-22" d="m181.03,81.57c-.02.05-.03.13-.07.14-.04.01-.1-.04-.15-.06.02-.05.03-.13.07-.14.04-.01.1.04.15.06Z"/>
          <path class="cls-28" d="m147.16,244.82c.01-.23.02-.46.03-.69-.01.23-.02.46-.03.69Z"/>
          <path class="cls-6" d="m165.79,60.82c.15-.1.3-.2.44-.3-.15.1-.3.2-.44.3Z"/>
          <path class="cls-28" d="m183.21,82.57c-.02-.2-.05-.4-.07-.59.02.2.05.4.07.59Z"/>
          <path class="cls-28" d="m147.11,247.76c0-.11,0-.22,0-.32,0,.11,0,.22,0,.32Z"/>
          <path class="cls-28" d="m147.13,246.3c0-.11,0-.21,0-.32,0,.11,0,.21,0,.32Z"/>
          <path class="cls-28" d="m147.14,245.57c0-.1,0-.21,0-.31,0,.1,0,.21,0,.31Z"/>
          <path class="cls-22" d="m163.62,82.21c.12.05.23.09.35.14-.12-.05-.23-.09-.35-.14Z"/>
          <path class="cls-4" d="m34.97,146.46c-.02.06-.03.12-.05.17.02-.06.03-.12.05-.17Z"/>
          <path class="cls-22" d="m162.76,82.13c.11,0,.22.02.34.02-.11,0-.22-.02-.34-.02Z"/>
          <path class="cls-22" d="m165.26,82.42c.05-.04.1-.03.15,0-.05,0-.1,0-.15,0Z"/>
          <path class="cls-19" d="m78.34,87.49s0,.09-.01.13c0,0-.04-.07-.04-.07l.05-.06Z"/>
          <path class="cls-19" d="m78.29,88.13c-.01.07-.02.14-.04.2.01-.07.02-.14.04-.2Z"/>
          <path class="cls-22" d="m173.03,67.29c-.04-.08-.09-.16-.13-.24.04.08.09.16.13.24Z"/>
          <path class="cls-32" d="m166.34,186.9c.05-.05.1-.1.15-.16-.05.05-.1.1-.15.16Z"/>
          <path class="cls-32" d="m134.09,25.31c-.06,0-.12,0-.19,0,.06,0,.12,0,.19,0Z"/>
          <path class="cls-4" d="m42.07,116c-.03.08-.06.15-.09.23.03-.08.06-.15.09-.23Z"/>
          <path class="cls-4" d="m89.43,152.62c-.06.08-.11.16-.17.24.06-.08.11-.16.17-.24Z"/>
          <path class="cls-23" d="m284.22,138.64c.06,0,.12,0,.18.02-.06,0-.12-.01-.18-.02Z"/>
          <path class="cls-28" d="m147.12,247.04c-.04-.05-.03-.1,0-.15,0,0,.04.08.04.08l-.05.07Z"/>
          <path class="cls-23" d="m285.86,110.38c-.06,0-.12,0-.18-.01.06,0,.12,0,.18.01Z"/>
          <path class="cls-32" d="m102.17,35.87c0,.08,0,.15-.01.23,0-.08,0-.15.01-.23Z"/>
          <path class="cls-26" d="m91.27,154.32c.37-.57.74-1.14,1.09-1.72.09-.14.13-.32.19-.48.37,1.48.78,2.95,1.09,4.44.93,4.46,1.83,8.93,2.73,13.39.92,4.61,1.78,9.24,2.74,13.85,1.33,6.44,2.71,12.87,4.1,19.3.49,2.27,1.04,4.53,1.6,6.79.08.32.3.6.46.89-1.37,1.65-2.79,3.26-4.11,4.96-2.99,3.85-5.93,7.75-8.89,11.62-.07.1-.16.18-.24.28-.13-.32-.34-.64-.37-.97-.66-7.57-.56-15.17-.59-22.76-.02-4.14-.11-8.28-.17-12.43.06-6.94.13-13.88.17-20.83.03-4.92.01-9.83.02-14.75l.05-.03s-.03-.06-.05-.09c.06-.49.12-.99.19-1.48Z"/>
          <path class="cls-19" d="m161.61,191.54s-.09.09-.13.13c.04-.04.09-.09.13-.13Z"/>
          <path class="cls-8" d="m91.08,155.91c0,4.92,0,9.83-.02,14.75-.04,6.94-.11,13.88-.17,20.83-.17-.53-.52-1.08-.47-1.59.11-1.09.03-2.08-.7-2.94-.04-.05-.07-.11-.12-.14-1.38-.62-1.94-1.73-1.99-3.19-.01-.35-.15-.71-.16-1.06-.01-.79.09-1.59-.6-2.19-.09-.08-.1-.27-.14-.42-.26-1.2-.49-2.4-.78-3.59-.05-.22-.35-.38-.54-.57.64-2.89,1.25-5.79,1.94-8.66.88-3.7,1.82-7.39,2.72-11.08.15-.61.23-1.23.34-1.85.22-.4.44-.81.66-1.21.05.25.1.5.15.75.02.19.04.39.07.58-.06.49-.12.99-.19,1.48,0,.04,0,.08,0,.11Z"/>
          <path class="cls-4" d="m76.43,255.24c-.42-1.56-1.55-2.37-3.02-2.82,1.98-.07,3.47,1.33,3.02,2.82Z"/>
          <path class="cls-4" d="m290.95,131.52c.04-.05.09-.1.13-.15-.04.05-.09.1-.13.15Z"/>
          <path class="cls-11" d="m160.49,98.29c1.19.58,2.39,1.17,3.58,1.75,5.35,2.63,10.71,5.27,16.06,7.9,2.8,1.38,5.59,2.75,8.39,4.12.57.61,1.11,1.25,1.73,1.82,1.24,1.14,2.52,2.25,3.79,3.36,2.23,1.95,4.46,3.89,6.69,5.84,1.12.99,2.23,1.99,3.35,2.98-7.15.89-14.25,2.07-21.16,4.2-6.68,2.06-12.95,4.99-18.79,8.83-1.32.87-2.61,1.77-3.92,2.65-.29.2-.6.38-1.06.68-.17-.64-.33-1.14-.43-1.64-1.34-6.85-4.26-12.94-8.99-18.08-3.35-3.64-6.65-7.33-10.27-10.7-3.19-2.97-6.2-6.07-8.91-9.44-3.9-4.86-7.32-10.05-9.81-15.79-.83-1.91-1.44-3.91-2.15-5.86h0c.5.41,1.02.8,1.49,1.24,2.64,2.45,5.18,5.01,7.93,7.33,3.31,2.79,6.74,5.44,10.23,8,3.74,2.75,7.81,4.99,12.02,6.95.6.28,1.08.28,1.59-.09,2.87-2.02,5.75-4.03,8.62-6.04Z"/>
          <path class="cls-16" d="m204.08,126.06c-1.12-.99-2.23-2-3.35-2.98-2.23-1.95-4.46-3.89-6.69-5.84-1.27-1.11-2.55-2.22-3.79-3.36-.61-.56-1.15-1.21-1.73-1.82,1.67.61,3.35,1.22,5.01,1.85,3.31,1.25,6.6,2.53,9.91,3.79,5.59,2.13,11.2,4.25,16.78,6.4.5.19.9.64,1.34.97-.33.03-.66.07-.99.09-5.02.29-10.03.59-15.05.87-.48.03-.97.01-1.46.02Z"/>
          <path class="cls-4" d="m168.91,37.87c.21.13.41.26.62.39-.03.06-.06.13-.09.19-.31-.12-.62-.25-.93-.37.13-.07.27-.15.41-.22Z"/>
          <path class="cls-11" d="m118.6,80.9s-.05-.06-.07-.09c.02,0,.05,0,.05.01.01.02.01.05.02.07,0,0,0,0,0,0Z"/>
          <path class="cls-17" d="m232.46,181.5c.07,0,.14,0,.21.01-.07,0-.14,0-.21-.01Z"/>
          <path class="cls-21" d="m239.75,140.49c-.87,0-1.62-.75-1.62-1.62,0-.92.74-1.66,1.67-1.67.95,0,1.57.62,1.58,1.61,0,.98-.68,1.69-1.63,1.68Z"/>
          <path class="cls-21" d="m238.21,164.14c.92-.02,1.53.64,1.52,1.64-.01.85-.64,1.47-1.51,1.48-.86,0-1.56-.66-1.59-1.52-.03-.91.63-1.58,1.57-1.6Z"/>
          <path class="cls-21" d="m223.63,153.99c.78-.02,1.53.69,1.55,1.47.02.81-.65,1.58-1.4,1.6-.84.03-1.68-.75-1.67-1.57,0-.75.76-1.5,1.53-1.51Z"/>
          <path class="cls-21" d="m263.87,162.86c.88.04,1.46.72,1.4,1.66-.05.75-.77,1.33-1.59,1.27-.88-.05-1.52-.78-1.45-1.64.07-.87.67-1.34,1.64-1.29Z"/>
          <path class="cls-21" d="m226.67,166.9c-.9.01-1.46-.53-1.48-1.43-.02-1,.47-1.52,1.47-1.52.9,0,1.43.49,1.45,1.36.02.94-.55,1.58-1.44,1.59Z"/>
          <path class="cls-21" d="m236.58,154.66c.85,0,1.36.5,1.38,1.34.02.92-.63,1.61-1.48,1.6-.66-.01-1.43-.8-1.45-1.5-.03-.77.7-1.44,1.55-1.44Z"/>
          <path class="cls-21" d="m253.04,154.47c0,.77-.83,1.64-1.55,1.62-.65-.02-1.34-.84-1.35-1.59,0-.79.71-1.46,1.54-1.45.72,0,1.36.67,1.36,1.43Z"/>
          <path class="cls-21" d="m249.78,166.19c-.8,0-1.43-.64-1.41-1.42.02-.81.7-1.48,1.53-1.49.78-.02,1.36.62,1.35,1.49,0,.93-.52,1.43-1.47,1.43Z"/>
          <path class="cls-4" d="m36.07,159.78c-.17-.34-.54-.73-.47-1,.07-.27.6-.41.92-.61-.15.54-.3,1.07-.46,1.61Z"/>
          <path class="cls-4" d="m39.84,145.94c-.14-.19-.29-.39-.43-.58.22-.11.43-.22.65-.33-.07.3-.14.61-.21.91Z"/>
          <path class="cls-4" d="m40.31,143.88c.04-.1.07-.2.11-.31-.04.1-.07.2-.11.31Z"/>
          <path class="cls-4" d="m40.09,144.5c.05-.07.1-.13.15-.2-.05.07-.1.13-.15.2Z"/>
          <path class="cls-4" d="m91.12,40.09c-.68.65-1.36,1.3-2.05,1.95.32-1.14,1.13-1.91,2.05-1.95Z"/>
          <path class="cls-28" d="m63.21,70.11c.39.67.03.88-.58.92.19-.31.39-.62.58-.92Z"/>
          <path class="cls-28" d="m64.66,67.91c.02.46.09.96-.62.92.21-.31.42-.62.62-.92Z"/>
          <path class="cls-15" d="m91.21,153.74c-.05-.25-.1-.5-.15-.75.06-.47.13-.94.19-1.41-.01.72-.03,1.44-.04,2.16Z"/>
          <path class="cls-15" d="m91.28,151.22c.09-.25.18-.49.27-.74-.09.25-.18.49-.27.74Z"/>
          <path class="cls-15" d="m91.08,155.91s0-.08,0-.11c.02.03.03.06.05.09-.02,0-.04.02-.05.03Z"/>
        </g>
      </g>
    </g>
  </g>
</svg>