<?xml version="1.0" encoding="UTF-8"?>
<svg id="Layer_2" data-name="Layer 2" xmlns="http://www.w3.org/2000/svg" xmlns:xlink="http://www.w3.org/1999/xlink" viewBox="0 0 276.39 276.39">
  <defs>
    <style>
      .cls-1, .cls-2, .cls-3 {
        fill: none;
      }

      .cls-2 {
        stroke: #231f20;
        stroke-miterlimit: 10;
        stroke-width: 6px;
      }

      .cls-4 {
        fill: #f9f8f7;
      }

      .cls-5 {
        fill: #f8f5f0;
      }

      .cls-6 {
        fill: #694b2d;
      }

      .cls-7 {
        fill: #ea837b;
      }

      .cls-8 {
        fill: #e5453a;
      }

      .cls-9 {
        fill: #f5d3d1;
      }

      .cls-10 {
        fill: #fcfaf9;
      }

      .cls-11 {
        fill: #f0a62e;
      }

      .cls-12 {
        fill: #92929a;
      }

      .cls-13 {
        fill: #314e6d;
      }

      .cls-14 {
        fill: #90302e;
      }

      .cls-15 {
        fill: #ced1d6;
      }

      .cls-16 {
        fill: #b03a37;
      }

      .cls-17 {
        fill: #bbb6ba;
      }

      .cls-18 {
        fill: #cccac6;
      }

      .cls-19 {
        fill: #c78f34;
      }

      .cls-20 {
        fill: #e34538;
      }

      .cls-21 {
        fill: #171627;
      }

      .cls-22 {
        fill: #421925;
      }

      .cls-23 {
        fill: #181624;
      }

      .cls-24 {
        fill: #3e5e7a;
      }

      .cls-25 {
        fill: #1c3b52;
      }

      .cls-26 {
        fill: #6d6d7a;
      }

      .cls-27 {
        fill: #484655;
      }

      .cls-28 {
        fill: #2e2c3c;
      }

      .cls-29 {
        fill: #5b3b1a;
      }

      .cls-30 {
        fill: #625f6a;
      }

      .cls-31 {
        fill: #4e7fa6;
      }

      .cls-32 {
        fill: #4e80a7;
      }

      .cls-3 {
        clip-path: url(#clippath);
      }
    </style>
    <clipPath id="clippath">
      <circle class="cls-1" cx="139.2" cy="137.7" r="135.2"/>
    </clipPath>
  </defs>
  <g id="Layer_1-2" data-name="Layer 1">
    <g>
      <g class="cls-3">
        <g>
          <path class="cls-10" d="m13.3-21.71h234.53v288.6H13.3c0-96.2,0-192.4,0-288.6Zm200.46,199.28c.09.08.18.16.27.24,1.75,6.4,4.97,11.99,9.51,16.78,3.45,3.64,7.44,6.68,12.07,8.6,3.04,1.27,6.35,1.92,9.56,2.77,1.26.34,1.78-.3,1.64-1.59-.37-3.36-.73-6.72-1.03-10.09-.48-5.45-.93-10.91-1.36-16.37-.38-4.85-.72-9.7-1.07-14.55-.11-1.52-.2-3.04-.34-4.56-.34-3.71-.72-7.41-1.03-11.12-.26-3.04-.41-6.08-.68-9.12-.42-4.72-.96-9.42-1.36-14.14-.3-3.55-.41-7.12-.71-10.67-.4-4.66-.9-9.32-1.37-13.97-.44-4.36-.73-8.75-1.41-13.08-1.16-7.41-3.32-14.57-6.4-21.41-2.94-6.55-6.71-12.58-11.18-18.24-4.33-5.49-9.3-10.31-14.79-14.52-8.19-6.28-17.32-10.97-27.23-13.92-4.57-1.36-9.3-2.27-14.01-3.09-3.37-.59-6.82-.7-10.23-1.03-.11-.04-.21-.06-.33-.05-1.86,0-3.72-.02-5.58-.02-6.64,0-13.28,0-19.92,0-.12.01-.23.03-.35.04-4.31-.24-8.55.32-12.81.94-8.8,1.29-17.18,3.84-25.21,7.6-7.34,3.44-14.03,7.93-20.08,13.31-5.71,5.07-10.81,10.77-14.72,17.34-2.82,4.73-5.05,9.8-7.47,14.76-2.63,5.39-3.96,11.19-4.98,17.04-.56,3.2-.76,6.46-1.04,9.7-.49,5.57-.93,11.14-1.37,16.71-.16,2.03-.2,4.08-.36,6.11-.32,3.88-.71,7.75-1.02,11.63-.17,2.15-.17,4.31-.36,6.45-.42,4.94-.97,9.88-1.34,14.82-.33,4.41-.48,8.84-.72,13.25-.09,1.66-.21,3.32-.35,4.98-.45,5.34-.94,10.68-1.35,16.02-.2,2.55-.2,5.11-.38,7.66-.12,1.73-.45,3.45-.58,5.18-.2,2.63-.32,5.28-.5,8.34,3.34-.35,6.46-.45,9.47-1.05,4.53-.91,8.64-2.9,12.27-5.8,1.33-1.02,2.75-1.95,3.97-3.09,4.46-4.21,7.62-9.29,9.72-15.02.7-1.91,1-3.97,1.48-5.96.08-.35.17-.71.25-1.06l.12-1.31c.19-.2.39-.4.58-.6.62.05,1.23.15,1.85.15,4.89.05,9.78.07,14.67.11,0,20.26.02,40.52.04,60.77,0,.73.12,1.46.19,2.19.16.12.32.23.48.35l.65.02c.14-.01.28-.02.42-.04,1.73-.56,3.47-1.12,5.2-1.68-.02.06-.03.12-.03.19-.01,4.82-.04,9.64-.03,14.47,0,.37.19.73.3,1.1,0,0,.1-.02.1-.02.39.13.78.38,1.17.38,8.41,0,16.82-.02,25.23-.04,5.33.02,10.66.05,15.98.05.3,0,.6-.23.89-.35.1-.19.25-.36.31-.56,1.51-5.81,2.97-11.63,4.53-17.42.4-1.5,1.1-2.91,1.66-4.37,2.68,4.31,5.74,8.25,9.68,11.56,4.05,3.39,8.39,6.16,13.29,8.1,4.22,1.67,8.57,2.75,13.12,2.94,5.06.03,10.12.07,15.18.08.34,0,.68-.24,1.02-.37h0c.12-.63.35-1.26.35-1.89.02-21.5.02-42.99.03-64.49,0-1.95.07-3.89.11-5.84.13-.03.19-.1.2-.23.63-.02,1.26-.07,1.89-.07,5.21-.03,10.43-.05,15.64-.07l-.03.12Z"/>
          <path class="cls-21" d="m53.53,199.47c-3.63,2.9-7.74,4.89-12.27,5.8-3.01.6-6.12.7-9.47,1.05.18-3.07.3-5.71.5-8.34.13-1.73.46-3.45.58-5.18.18-2.55.19-5.11.38-7.66.41-5.34.9-10.68,1.35-16.02.14-1.66.26-3.32.35-4.98.24-4.42.39-8.84.72-13.25.37-4.95.92-9.88,1.34-14.82.18-2.15.19-4.3.36-6.45.31-3.88.7-7.75,1.02-11.63.17-2.03.2-4.08.36-6.11.43-5.57.88-11.14,1.37-16.71.29-3.24.49-6.51,1.04-9.7,1.02-5.85,2.35-11.65,4.98-17.04,2.42-4.96,4.65-10.04,7.47-14.76,3.91-6.57,9.01-12.27,14.72-17.34,6.05-5.37,12.74-9.86,20.08-13.31,8.03-3.77,16.41-6.32,25.21-7.6,4.26-.62,8.5-1.19,12.81-.94,0,1.19-.03,2.38.02,3.56.07,1.9.18,3.79.28,5.69,0,.34,0,.68,0,1.01,0,1.38,0,2.76,0,4.15,0,.45,0,.9,0,1.36,0,.47,0,.93,0,1.4-.21.55-.43,1.11-.64,1.66-4.73.6-9.33,1.77-13.57,3.95-4.06,2.08-7.71,4.76-10.94,8.06-5.22,5.33-8.75,11.63-10.48,18.81-.93,3.86-1.03,7.91-1.5,11.88,0,1.61,0,3.22,0,4.84,0,.22,0,.44,0,.67,0,.58,0,1.16,0,1.74.06,1.71.11,3.42.17,5.13-.02.13-.03.25-.05.38,0,.57,0,1.15,0,1.72.1.47.19.95.29,1.42-.04.11-.03.22.04.32.1,2.61.17,5.22.29,7.82.22,4.71.45,9.42.7,14.13.1,1.93.23,3.85.38,5.78.32,4.23.73,8.46.96,12.69.22,4.05.27,8.11.39,12.16-.11.61-.23,1.21-.34,1.82l.64.05c.03-.6.06-1.2.08-1.79.2-.2.45-.36.58-.6,2.25-4.15,4.21-8.5,6.8-12.43,3.19-4.83,6.77-9.43,10.46-13.91,2.73-3.31,5.92-6.25,8.86-9.4.5-.54,1.08-1.3,1.09-1.97.06-4.81,0-9.62-.04-14.43,0-.12,0-.25,0-.37h.08c.11-.3.31-.61.31-.91.02-5.43.03-10.86.02-16.3,0-.3-.16-.59-.38-1.37-.19.78-.26,1.08-.33,1.38-.08.07-.21.12-.25.21-2.7,5.56-8.22,7.79-13.79,6.6-6.36-1.36-11.71-8.6-9.06-16.11,2.35-6.63,9.31-9.72,15.94-7.6,2.89.92,5.13,2.74,6.83,5.23l.41.93.62-.06v-5.57c1.71,0,3.42,0,5.13,0,0,1.63-.03,3.27.03,4.9.05,1.67.19,3.33.28,4.99,0,.45,0,.91,0,1.36,0,.58,0,1.16,0,1.74,0,1.14,0,2.28,0,3.42,0,.58,0,1.16,0,1.74,0,1.14,0,2.28,0,3.42,0,.58,0,1.16,0,1.73,0,1.03,0,2.05,0,3.08,0,2.87,0,5.74,0,8.62,0,.34,0,.68,0,1.01,0,2.53,0,5.06,0,7.59,0,.34,0,.68,0,1.01-.11,2.51-.21,5.01-.32,7.52-3.18,3.27-6.49,6.43-9.5,9.85-3.29,3.75-6.47,7.63-9.4,11.68-6.13,8.47-10.79,17.72-13.39,27.89-.88,3.44-1.34,6.98-2,10.47.01.36.03.71.04,1.07,0,0-.11-.02-.11-.02-.12.65-.34,1.3-.35,1.95-.02,17.61-.02,35.23,0,52.84,0,.54.18,1.09.28,1.63,0,0,.12-.04.12-.04-.02.13-.05.26-.07.38.08.18.16.36.24.54.15-.17.31-.34.46-.51,1.82-.7,3.65-1.38,5.46-2.11,9.29-3.73,17.3-9.41,24.38-16.39,2.98-2.94,5.56-6.3,8.23-9.55.96-1.17,1.67-2.55,2.57-3.97-.45,0-.72-.09-.89.01-1.59.94-3.1,2.05-4.75,2.86-3.38,1.65-6.91,1.74-10.48.58-7.97-2.59-13.39-12.14-12.26-21,.74-5.75,2.95-10.6,6.78-14.7,5.63-6.04,12.82-8.86,21-9.06,5.33-.13,10.66-.17,15.98.04,2.71.11,5.48.58,8.08,1.38,7.13,2.2,12.72,6.42,16.31,13.13,2.54,4.76,3.78,9.69,2.8,15.08-1.29,7.14-4.72,12.48-11.96,14.88-5.8,1.92-10.99,1.1-15.52-3.06-1.48-1.37-2.78-2.94-4.32-4.6-.53,3.25-1.28,6.41-1.52,9.61-.41,5.63.43,11.13,2.35,16.47,2.03,5.64,5.16,10.62,9.3,14.86,3.71,3.8,7.89,7.14,13.02,8.85,3.83,1.28,7.8,2.14,11.71,3.19,3.54.08,7.09.16,10.63.23.1,0,.2-.23.3-.35l.02.05c.14-.46.39-.91.39-1.37.03-4.95.03-9.91,0-14.86,0-.43-.18-.86-.28-1.28,0-9.4,0-18.79,0-28.19.09-.37.27-.74.27-1.12.02-8.44.02-16.89,0-25.33,0-.47-.25-.93-.38-1.4-.09-.03-.18-.05-.27-.07-.24-2.25-.3-4.54-.77-6.74-1.72-8.06-4.71-15.64-8.88-22.75-4.26-7.25-9.57-13.69-15.42-19.66-3.7-3.77-7.8-7.15-11.73-10.71-.11-.1-.23-.21-.34-.31-.06-.07-.09-.15-.09-.24.02-5.39.05-10.79.05-16.18,0-.26-.16-.52-.24-.78,0-.44,0-.88,0-1.33,0-.93,0-1.87,0-2.8,0-.21,0-.43,0-.64.09-.43.24-.87.24-1.3.02-8.21.02-16.41,0-24.62,0-.43-.15-.87-.24-1.3,0-.9,0-1.8,0-2.7,0-.48,0-.95,0-1.43,0-.79,0-1.57,0-2.36,0-.36,0-.72,0-1.08,0-1.13,0-2.26,0-3.39,0-.7,0-1.41,0-2.11,0-1.47,0-2.95,0-4.42.08-.6.24-1.21.24-1.81.03-9.24.03-18.48.04-27.72,3.41.33,6.86.44,10.23,1.03,4.71.83,9.44,1.73,14.01,3.09,9.91,2.96,19.04,7.64,27.23,13.92,5.49,4.21,10.46,9.04,14.79,14.52,4.47,5.66,8.24,11.69,11.18,18.24,3.08,6.85,5.24,14,6.4,21.41.68,4.33.96,8.71,1.41,13.08.47,4.66.97,9.31,1.37,13.97.3,3.55.41,7.12.71,10.67.4,4.72.94,9.43,1.36,14.14.27,3.04.42,6.08.68,9.12.32,3.71.7,7.41,1.03,11.12.14,1.52.23,3.04.34,4.56.36,4.85.69,9.7,1.07,14.55.43,5.46.88,10.92,1.36,16.37.3,3.37.66,6.73,1.03,10.09.14,1.3-.38,1.93-1.64,1.59-3.21-.85-6.51-1.51-9.56-2.77-4.63-1.92-8.62-4.96-12.07-8.6-4.54-4.79-7.76-10.38-9.51-16.78-.09-.08-.18-.16-.27-.24l.03-.12c-.19-.1-.39-.3-.58-.3-5.61,0-11.23,0-16.84.02-.15,0-.3.15-.45.22-.12.54-.33,1.08-.33,1.62-.01,23.68-.01,47.35,0,71.03,0,0,0,0,0,0-4.93,0-9.85-.03-14.78-.01-.47,0-.95.2-1.42.3-4.55-.19-8.9-1.27-13.12-2.94-4.9-1.94-9.24-4.7-13.29-8.1-3.94-3.31-7-7.25-9.68-11.56-.2-1.37-.84-1.21-1.53-.38-.87,1.05-1.65,2.18-2.49,3.25-4.36,5.52-9.02,10.76-14.37,15.35-1.5,1.29-2.89,2.7-4.34,4.05-.2.03-.41.07-.61.1-8.81-.02-17.63-.05-26.44-.07l-.1.02c.05-.15.1-.29.15-.44,12.74-9.71,23.49-21.28,32.48-34.53-.49.07-.82.31-1.14.57-3.68,2.87-7.24,5.92-11.07,8.56-6.36,4.39-13.41,7.45-20.65,10.09-1.73.56-3.47,1.12-5.2,1.68-.14.01-.28.02-.42.04-.22,0-.43-.01-.65-.02,0-5.03.01-10.07,0-15.1,0-.49-.17-.98-.26-1.47,0-15.02.01-30.05.02-45.07,0-.34,0-.68,0-1.02-.04-.22-.07-.45-.11-.67.02-.23.03-.46.05-.68.1-.49.28-.98.28-1.47.02-12.74.02-25.49,0-38.23,0-.54-.2-1.09-.3-1.63-.11-.12-.21-.24-.32-.36-.35-5.03-.78-10.06-1.04-15.1-.31-5.96-.48-11.92-.71-17.88.03-.04.11-.09.1-.11-.03-.08-.09-.15-.13-.22h0c-.15-1.65-.31-3.29-.46-4.94-.01-.18-.03-.36-.04-.54.04-1.15.08-2.29.13-3.44.02-4.85.04-9.71.04-14.56,0-.32-.17-.64-.26-.95.27-2.52.4-5.08.86-7.57.44-2.42,1.22-4.78,1.85-7.16.53-1.09,1.09-2.17,1.59-3.27,2.32-5.14,5.72-9.53,9.39-13.74.09-.09.18-.17.26-.26.3-.32.6-.63.9-.95,1.21-1.05,2.42-2.1,3.63-3.14,5.72-3.8,11.78-6.89,18.49-8.39v-7.42c-.52-.02-.98-.11-1.41-.05-3.36.45-6.74.83-10.08,1.43-7.75,1.39-14.98,4.23-21.86,8.02-5.6,3.09-10.76,6.76-15.51,11.04-6.63,5.98-12.19,12.83-16.44,20.67-4.01,7.41-7.1,15.18-8.22,23.6-.76,5.76-1.44,11.54-2.03,17.32-.27,2.65-.23,5.34-.37,8.01-.08,1.7-.18,3.4-.35,5.09-.42,4.22-.97,8.43-1.32,12.65-.34,4.13-.44,8.29-.75,12.43-.39,5.14-.93,10.27-1.31,15.41-.41,5.5-.69,11-1.08,16.5-.17,2.37-.48,4.73-.72,7.1-.31.36-.84.7-.9,1.1-.32,2.24-.52,4.49-.77,6.74-.4,3.67-.67,7.36-1.22,11.01-.45,2.94.31,3.78,3.25,3.26,1.16-.21,2.69-1.2,3.18.89,1.18-.4,2.23-.76,3.26-1.11-.35-2.18.43-3.03,2.33-2.71-.27.51-.54,1.02-.81,1.54.13.11.26.22.38.33,2.17-1.42,4.33-2.84,6.5-4.26.11.17.22.35.33.52-.46.33-.97.61-1.37,1-.38.37-1.28.86-.02,1.29Zm104.54-126.26c.04.37.08.73.12,1.1.01.45.03.89.04,1.34,0,.57-.01,1.14-.02,1.72-.04,4.84-.1,9.68-.11,14.53,0,5.13.05,10.25.08,15.38.08.11.17.22.25.33.68.49,1.36.97,2.03,1.46,3.12,3.06,6.33,6.04,9.35,9.19,4.83,5.03,9.34,10.35,12.92,16.37,2.25,3.77,4.31,7.65,6.46,11.48.13.43.27.87.4,1.3.15-.02.31-.04.46-.06-.05-.96-.1-1.92-.14-2.89,0-5.84.02-11.67.02-17.51,0-.37,0-.74,0-1.11.02-.63.05-1.26.05-1.89,0-15.98-.02-31.97.04-47.95.03-6.63-1.13-12.93-3.91-19.01-3.07-6.72-7.37-12.34-13.56-16.38-2.95-1.93-6.14-3.5-9.21-5.23-.27-.1-.54-.21-.81-.31-.05-.08-.11-.09-.19-.04-.28-.1-.56-.2-.84-.29-.33-.03-.66-.06-.99-.09-.44-.23-.88-.46-1.32-.69-.34.05-.67.09-1.01.14,0,9.94,0,19.89,0,29.83v1.18c.09,0,.19.02.28.02.14-.35.27-.7.41-1.05,2.58-5.99,11.5-9.98,18.19-5.24.63.45,1.32.83,1.98,1.25,3.2,3.83,4.84,7.99,3.11,13.03-2.61,7.62-11.27,10.44-17.27,7.23-2.19-1.17-3.78-3.47-5.64-5.26-.12-.3-.24-.6-.37-.9-.15-.35-.3-.7-.45-1.05-.08-.11-.17-.23-.25-.34-.04.15-.08.3-.12.44Zm11,114.89s-.01,0-.01,0c-.1-.32-.21-.91-.29-.91-1.04.03-2.09.15-3.13.25-1.49-.02-2.98-.04-4.47-.06-3.78-.02-7.56-.03-11.33-.05-.11.15-.22.3-.33.45.94,3.02,3.18,5.3,5.9,6.02,5.7,1.51,9.09.26,12.94-4.68.24-.34.48-.69.72-1.03Zm43.8-96.61c-.04-3.23-.07-6.45-.11-9.68-.01-.11-.05-.22-.1-.33-.08-.13-.15-.26-.23-.39.02-5.68-1.49-11.06-3.54-16.27-3.5-8.91-9.07-16.26-16.86-21.96-4.41-3.23-9.17-5.71-14.16-7.83-.93-.39-1.89-.71-2.84-1.07-.08.12-.15.25-.23.37.39.36.74.77,1.16,1.08,4.33,3.15,8.11,6.86,11.11,11.3,4.84,7.17,8.03,14.97,8.52,23.73-.01,6.74-.03,13.49-.03,20.23,0,.27.14.53.21.8.05.16.11.31.16.47-.02,8.69-.07,17.39-.07,26.08,0,12.13.04,24.26.06,36.39,0,.46,0,.92,0,1.38,0,3.67,0,7.33,0,11,0,.8,0,1.61,0,2.41v1.71c.11.24.21.47.31.71v.1c.48.08.97.24,1.46.24,4.37.02,8.74.03,13.11.01.55,0,1.09-.16,1.64-.25,0,0,0-.1,0-.1.15-.11.3-.22.46-.33.07-.67.21-1.34.21-2.02,0-24.75,0-49.51,0-74.26,0-.6-.17-1.21-.26-1.81-.04-.23-.08-.47-.13-.7,0-.12,0-.23.01-.35.06-.1.07-.2.01-.3l.15-.36Zm-75.04,68.99c-1.18,0-2.36,0-3.54,0-.31,0-.62,0-.93,0-.26,0-.52.01-.79.02-.2,0-.4.01-.6.02-.47.03-.94.06-1.41.08-1.54.32-3.12.51-4.61.99-5.41,1.73-9.62,5.08-12.58,9.9-1.1,1.8-2.21,3.71-2.09,5.98.59.02,1.18.04,1.78.06.2,0,.41,0,.61,0,.5.08.99.23,1.49.24,17.79.02,35.58.02,53.37,0,.52,0,1.04-.25,1.56-.38-1.8-9.26-10.4-15.63-18.86-16.5-1.54-1.27-3.24-.57-4.89-.42-1.34,0-2.68,0-4.03,0-.61,0-1.21,0-1.82,0-.88,0-1.77,0-2.65,0Zm32.2-84.85c4.16.31,6.93-2.78,6.94-6.61.01-3.63-2.97-6.47-6.72-6.47-3.5,0-6.7,3.15-6.69,6.56.01,3.48,3.03,6.52,6.46,6.51Zm-60.82-12.77c-3.93,0-6.52,2.49-6.53,6.25-.01,3.66,3.11,6.87,6.7,6.85,2.89-.02,6.5-2.57,6.48-6.68-.02-3.96-3.04-6.76-6.65-6.42Z"/>
          <path class="cls-5" d="m126.73,69.44c0-.45,0-.91,0-1.36.01-3.31.03-6.63.04-9.94.12-.5.34-1,.34-1.49-.09-7.36-.2-14.71-.35-22.07,0-.44-.44-.86-.67-1.3.21-.55.43-1.11.64-1.66,0-.47,0-.93,0-1.4,0-.45,0-.9,0-1.36,0-1.38,0-2.76,0-4.15,0-.34,0-.68,0-1.01.02-3.1.03-6.2.05-9.29,6.64,0,13.28,0,19.92,0,1.86,0,3.72.01,5.58.02-.03,9.36-.06,18.71-.09,28.07,0,.51.09,1.01.13,1.52,0,1.47,0,2.95,0,4.42,0,.7,0,1.41,0,2.11,0,1.13,0,2.26,0,3.39,0,.36,0,.72,0,1.08,0,.79,0,1.57,0,2.36,0,.48,0,.95,0,1.43,0,.9,0,1.8,0,2.7-.05.56-.13,1.13-.13,1.69-.02,6.74-.03,13.49-.02,20.23,0,1.77.09,3.53.14,5.29,0,.21,0,.43,0,.64,0,.93,0,1.87,0,2.8,0,.44,0,.88,0,1.33-.03,5.52-.07,11.04-.08,16.57,0,.13.18.27.27.4,0,.09.03.17.09.24.11.1.23.21.34.31,3.92,3.56,8.02,6.94,11.73,10.71,5.86,5.97,11.17,12.41,15.42,19.66,4.17,7.11,7.17,14.69,8.88,22.75.47,2.2.52,4.49.77,6.74.06.14.12.28.18.41.02,6.89.04,13.79.07,20.68.01,2.27.08,4.55.13,6.82,0,9.4,0,18.79,0,28.19-.04,5.84-.08,11.68-.12,17.52,0,0-.02-.05-.02-.05-3.65.04-7.29.09-10.94.13-3.91-1.05-7.87-1.92-11.71-3.19-5.13-1.71-9.31-5.05-13.02-8.85-4.14-4.25-7.28-9.22-9.3-14.86-1.92-5.34-2.76-10.84-2.35-16.47.23-3.2.98-6.36,1.52-9.61,1.55,1.66,2.84,3.23,4.32,4.6,4.53,4.17,9.72,4.99,15.52,3.06,7.24-2.4,10.67-7.74,11.96-14.88.97-5.39-.26-10.32-2.8-15.08-3.59-6.72-9.18-10.94-16.31-13.13-2.59-.8-5.37-1.27-8.08-1.38-5.32-.21-10.66-.17-15.98-.04-8.18.2-15.37,3.02-21,9.06-3.82,4.1-6.04,8.94-6.78,14.7-1.14,8.87,4.29,18.41,12.26,21,3.57,1.16,7.1,1.08,10.48-.58,1.65-.81,3.16-1.91,4.75-2.86.17-.1.44-.01.89-.01-.91,1.42-1.61,2.8-2.57,3.97-2.67,3.24-5.25,6.6-8.23,9.55-7.08,6.98-15.09,12.66-24.38,16.39-1.81.73-3.64,1.41-5.46,2.11-.11-.04-.22-.07-.33-.11-.1-.1-.2-.2-.3-.3,0,0-.12.04-.12.04.04-.62.12-1.25.12-1.87,0-16.53.01-33.06,0-49.59,0-1.65-.04-3.31-.06-4.96,0,0,.11.02.11.02-.01-.36-.03-.71-.04-1.07.65-3.49,1.12-7.04,2-10.47,2.6-10.18,7.25-19.42,13.39-27.89,2.93-4.04,6.11-7.92,9.4-11.68,3.01-3.42,6.32-6.58,9.5-9.85.13-.22.38-.44.38-.66,0-2.29-.04-4.57-.06-6.86,0-.34,0-.68,0-1.01,0-2.53,0-5.06,0-7.59,0-.34,0-.68,0-1.01,0-2.87,0-5.74,0-8.62,0-1.03,0-2.05,0-3.08,0-.58,0-1.16,0-1.73,0-1.14,0-2.28,0-3.43,0-.58,0-1.16,0-1.74,0-1.14,0-2.28,0-3.42,0-.58,0-1.16,0-1.74Z"/>
          <path class="cls-32" d="m84.49,97.32c.23,5.96.4,11.92.71,17.88.26,5.04.69,10.07,1.04,15.1.07.83.14,1.66.21,2.48,0,9.03-.02,18.06-.03,27.09,0,.38,0,.75,0,1.13,0,1,0,2,0,3.01l-.16,8.45c-.04.07-.07.15-.09.24-4.89-.03-9.78-.06-14.67-.11-.62,0-1.23-.1-1.85-.15-.12-.51-.24-1.01-.36-1.52.04-1.54.12-3.09.12-4.63.01-26.31.01-52.62.03-78.93,0-1.49.08-2.98.12-4.46.05-.35.09-.7.14-1.06.11-1.68.06-3.4.38-5.04.55-2.82,1.33-5.59,2.02-8.38l.59-1.26c.06-.38.11-.76.17-1.14,1.57-.81,1.48-2.36,1.66-3.78,0,0,0,0,0,0,.47-.37,1.12-.64,1.38-1.12,1.6-3.01,3.86-4.95,7.4-5.21,1.61-.12,2.75.34,3.29,1.93-.63,2.38-1.41,4.74-1.85,7.16-.46,2.49-.59,5.04-.86,7.57-.06,2.62-.11,5.24-.17,7.87,0,.37,0,.74,0,1.1,0,.32,0,.64,0,.96,0,.25,0,.5,0,.76.03,1.58.07,3.17.1,4.75.05,1.17.09,2.34.14,3.51.01.18.03.36.04.54.15,1.64.31,3.29.46,4.93,0,0,0,0,0,0-.02.11-.01.22.03.33Z"/>
          <path class="cls-23" d="m69.55,82.88c-.04,1.49-.11,2.98-.12,4.46-.01,26.31-.01,52.62-.03,78.93,0,1.54-.08,3.09-.12,4.63-.07.71-.15,1.41-.22,2.12-.04.44-.08.87-.12,1.31-.08.35-.17.71-.25,1.06-.48,1.99-.78,4.05-1.48,5.96-2.1,5.72-5.27,10.81-9.72,15.02-1.21,1.15-2.64,2.07-3.97,3.09-1.26-.44-.36-.92.02-1.29.4-.39.91-.67,1.37-1-.11-.17-.22-.35-.33-.52-2.17,1.42-4.33,2.84-6.5,4.26-.13-.11-.26-.22-.38-.33.27-.51.54-1.03.81-1.54-1.9-.32-2.68.53-2.33,2.71-1.03.35-2.08.7-3.26,1.11-.48-2.09-2.01-1.1-3.18-.89-2.94.53-3.7-.31-3.25-3.26.56-3.65.83-7.34,1.22-11.01.24-2.25.45-4.5.77-6.74.06-.4.59-.73.9-1.1-.22,4.15-.43,8.3-.66,12.44-.1,1.87-.16,3.75-.41,5.61-.24,1.8.08,2.25,1.78,1.76,7.34-2.1,13.23-6.27,17.56-12.56,3.77-5.47,5.56-11.59,5.74-18.21,0-.26,0-.52,0-.78,0-.43,0-.86,0-1.29v-1.8c-.05-1.25-.1-2.49-.16-3.74.05-.79.15-1.59.15-2.38-.01-19.98-.04-39.95-.06-59.93l.02-5.78c.24-6.75-.15-13.5,1.37-20.22,1.23-5.43,2.78-10.69,5.23-15.65,3.4-6.9,8.08-12.84,13.95-17.84,4.6-3.93,9.77-6.78,15.74-8.69.81,1.83,1.57,3.56,2.34,5.29-1.36.59-2.72,1.17-4.08,1.76-.47.15-.96.27-1.41.47-3.9,1.77-7.34,4.25-10.42,7.18-5,4.76-9.15,10.15-11.56,16.72,0,0,0,0,0,0-.55,1.26-1.11,2.52-1.66,3.78-.06.38-.11.76-.17,1.14-.2.42-.39.84-.59,1.26-.68,2.79-1.47,5.56-2.02,8.38-.32,1.64-.26,3.36-.38,5.04-.05.35-.09.7-.14,1.06Z"/>
          <path class="cls-20" d="m93.15,234.3c7.24-2.63,14.3-5.69,20.65-10.09,3.83-2.65,7.39-5.7,11.07-8.56.32-.25.65-.5,1.14-.57-9,13.25-19.74,24.82-32.48,34.53-.04-4.45-.06-8.91-.12-13.36,0-.59-.19-1.18-.29-1.77,0-.06.01-.13.03-.19Z"/>
          <path class="cls-25" d="m120.55,250c1.44-1.35,2.84-2.76,4.34-4.05,5.35-4.59,10.01-9.83,14.37-15.35.84-1.07,1.62-2.2,2.49-3.25.69-.82,1.33-.99,1.53.38-.56,1.45-1.26,2.87-1.66,4.37-1.56,5.79-3.02,11.61-4.53,17.42-.05.2-.2.37-.31.56-5.41-.03-10.82-.05-16.23-.08Z"/>
          <path class="cls-26" d="m195.56,250.04c0-23.68,0-47.35,0-71.03,0-.54.22-1.08.33-1.62.03.06.05.12.05.18.02.09.05.17.1.25-.04,1.95-.11,3.89-.11,5.84-.01,21.5,0,42.99-.03,64.49,0,.63-.23,1.26-.35,1.89Z"/>
          <path class="cls-12" d="m86.64,174.35c0,15.02-.01,30.05-.02,45.07-.02,1.54-.05,3.08-.07,4.61-.05,3.87-.1,7.74-.15,11.61-.07-.73-.19-1.46-.19-2.19-.02-20.26-.03-40.52-.04-60.77.02-.08.04-.16.09-.24.09.07.18.14.27.21.04.22.07.45.11.67,0,.34,0,.68,0,1.02Z"/>
          <path class="cls-30" d="m152.31,44.02c-.05-.51-.13-1.01-.13-1.52.02-9.36.06-18.71.09-28.07.11-.01.22,0,.33.05,0,9.24-.01,18.48-.04,27.72,0,.6-.16,1.21-.24,1.81Z"/>
          <path class="cls-26" d="m93.49,250.03c8.81.02,17.63.05,26.44.07-.02.09-.03.18-.04.27-8.41.02-16.82.04-25.23.04-.39,0-.78-.25-1.17-.38Z"/>
          <path class="cls-27" d="m195.9,177.4c.15-.08.3-.22.45-.22,5.61-.02,11.23-.03,16.84-.02.19,0,.39.2.58.3-5.21.02-10.43.04-15.64.07-.63,0-1.26.05-1.89.07-.1-.06-.2-.07-.3-.02,0-.06-.03-.12-.05-.18Z"/>
          <path class="cls-12" d="m119.9,250.37c0-.09.02-.18.04-.27.2-.03.41-.07.61-.1,5.41.03,10.82.05,16.23.08-.3.12-.6.35-.89.35-5.33,0-10.66-.03-15.98-.05Z"/>
          <path class="cls-28" d="m86.4,235.65c.05-3.87.1-7.74.15-11.61.02-1.54.04-3.08.07-4.61.09.49.26.98.26,1.47.02,5.03,0,10.07,0,15.1-.16-.12-.32-.23-.48-.35Z"/>
          <path class="cls-26" d="m179.37,250.33c.47-.11.95-.3,1.42-.3,4.93-.01,9.85,0,14.78.01-.34.13-.68.37-1.02.37-5.06,0-10.12-.05-15.18-.08Z"/>
          <path class="cls-9" d="m93.12,234.49c.1.59.28,1.18.29,1.77.06,4.45.09,8.9.12,13.36-.05.15-.1.29-.15.44-.1-.37-.3-.73-.3-1.1,0-4.82.02-9.64.03-14.47Z"/>
          <path class="cls-27" d="m126.77,14.41c-.02,3.1-.03,6.2-.05,9.29-.1-1.9-.21-3.79-.28-5.69-.04-1.19-.01-2.38-.02-3.56.12-.01.23-.03.35-.04Z"/>
          <path class="cls-24" d="m69.07,173.03c.07-.71.15-1.41.22-2.12.12.51.24,1.01.36,1.52-.19.2-.39.4-.58.6Z"/>
          <path class="cls-15" d="m68.7,175.4c.08-.35.17-.71.25-1.06-.08.35-.17.71-.25,1.06Z"/>
          <path class="cls-18" d="m195.96,177.58c.1-.05.21-.04.3.02,0,.13-.08.2-.2.23-.05-.08-.08-.16-.1-.25Z"/>
          <path class="cls-18" d="m213.76,177.57c.09.08.18.16.27.24-.09-.08-.18-.16-.27-.24Z"/>
          <path class="cls-12" d="m87.53,236.02c.14-.01.28-.02.42-.04-.14.01-.28.02-.42.04Z"/>
          <path class="cls-20" d="m63.39,168.9c-.18,6.62-1.98,12.74-5.74,18.21-4.33,6.29-10.22,10.46-17.56,12.56-1.71.49-2.03.04-1.78-1.76.25-1.85.3-3.74.41-5.61.23-4.15.44-8.29.66-12.44.24-2.37.55-4.73.72-7.1.39-5.5.67-11,1.08-16.5.38-5.14.93-10.27,1.31-15.41.31-4.14.41-8.29.75-12.43.35-4.22.9-8.43,1.32-12.65.17-1.69.27-3.39.35-5.09.13-2.67.1-5.35.37-8.01.59-5.78,1.26-11.56,2.03-17.32,1.12-8.42,4.21-16.2,8.22-23.6,4.25-7.85,9.81-14.69,16.44-20.67,4.75-4.28,9.91-7.95,15.51-11.04,6.89-3.79,14.12-6.63,21.86-8.02,3.34-.6,6.71-.97,10.08-1.43.43-.06.89.03,1.41.05v7.42c-6.71,1.51-12.77,4.59-18.49,8.39-.12-.12-.24-.25-.37-.37-.76-1.73-1.53-3.46-2.34-5.29-5.97,1.91-11.13,4.76-15.74,8.69-5.87,5.01-10.55,10.94-13.95,17.84-2.45,4.96-4,10.22-5.23,15.65-1.52,6.72-1.13,13.47-1.37,20.22-.18.47-.49.94-.51,1.42-.06,1.46-.01,2.93,0,4.4-.12.25-.34.49-.34.74-.13,7.26-.29,14.52-.34,21.77-.02,2.79.28,5.58.3,8.37.04,7.7.02,15.4.02,23.11,0,2.29-.04,4.58.04,6.87.02.48.48.94.74,1.41.05,1.25.1,2.49.15,3.74,0,.6,0,1.2,0,1.8,0,.43,0,.86,0,1.29,0,.26,0,.52,0,.78Z"/>
          <path class="cls-11" d="m195.93,154.41c-.02-12.13-.06-24.26-.06-36.39,0-8.69.04-17.39.07-26.09.21-.05.41-.1.62-.15,5.27-.02,10.55-.05,15.82-.07.11.05.22.1.34.14.05.1.05.2-.01.3-.04.03-.13.07-.13.09.03.09.07.17.11.26.04.23.08.47.13.7-.04-.07-.1-.08-.17-.04-.08.44-.23.88-.23,1.32-.02,5.2-.02,10.41,0,15.61,0,.44.15.88.23,1.31,0,13.65,0,27.29,0,40.94-.08.49-.23.99-.23,1.48-.01,5.93,0,11.86,0,17.8,0,0,0,.1,0,.1-5.4,0-10.81,0-16.21,0,0,0,0-.1,0-.1-.1-.24-.21-.47-.31-.71,0-.57,0-1.14,0-1.71,0-.8,0-1.61,0-2.41,0-3.67,0-7.33,0-11,0-.46,0-.92,0-1.38Z"/>
          <path class="cls-20" d="m163.35,35.35c3.08,1.73,6.26,3.31,9.21,5.23,6.19,4.04,10.49,9.66,13.56,16.38,2.77,6.08,3.93,12.38,3.91,19.01-.06,15.98-.03,31.97-.04,47.95,0,.63-.03,1.26-.05,1.89-.82.37-.82.74,0,1.11,0,5.84-.02,11.67-.02,17.51-.24.55-.48,1.09-.72,1.64-2.15-3.83-4.21-7.71-6.46-11.48-3.58-6.02-8.09-11.34-12.92-16.37-3.03-3.15-6.23-6.13-9.35-9.19.59-1.37,1.33-.31,1.86-.02,1.06.56,2.02,1.3,3.29,2.14-.28-.86-.46-1.39-.63-1.92l.33-.22c1.18.95,2.37,1.9,3.55,2.86-.09.16-.19.31-.28.47h-1.5c-.16.21-.33.42-.49.63.92.7,1.98,1.28,2.74,2.13,1.22,1.38,1.24,1.45,2.24-.12,1.31,1,1.17,1,1.23,2.5.02.58.74,1.32,1.33,1.66.78.44,1.75.56,2.63.82.8.24,1.59.67,2.4.68,1.09.02,1.74.31,2.31,1.33.96,1.74,2.42,2.25,3.81,1.61.39.42.78.84,1.53,1.66.07-1.21.08-1.92.17-2.62.08-.67.22-1.33.37-1.99.2-.86.57-1.71.63-2.58.2-3.24.32-6.49.41-9.74.05-1.78,0-3.56,0-5.42-1.9.58-2.19,1.47-2.14,3.5.05,2.06-.32,4.14-.5,6.21-.22,0-.44-.01-.66-.02-.22-1.85-.44-3.69-.69-5.8-1.55,1.4-2.85,2.58-4.45,4.02-.42-1.08-.66-1.68-.89-2.29-.18-.47-.21-1.14-.54-1.38-1.16-.84-1.19-1.98-1.2-3.21,0-.79-.13-1.58-.27-2.36-.22-1.21-.64-2.41-.71-3.63-.13-2.27-.36-2.6-2.56-3.09-1.43-.32-3.05-.58-2.31-2.79.11-.33-.07-.76-.07-.71-1.31-.69-2.29-1.27-3.33-1.73-1.92-.85-3.37-2.86-5.86-2.37-.27.05-.78-.41-.97-.74-1.04-1.91-1.51-3.94-1.52-6.16,0-1.05.24-2.65-1.5-3.02,0-.57.01-1.14.02-1.72.34-.19.68-.39,1.03-.58,1.86,1.79,3.45,4.09,5.64,5.26,6.01,3.21,14.66.39,17.27-7.23,1.73-5.05.09-9.21-3.11-13.03.15-1.53-1.46-1.56-2.04-2.4-1.79-2.58-4.01-4.29-7.27-4.39-.82-.03-1.09-.48-.7-1.28.59-1.23,1.21-1.11,2.75-.42,1.17.52,2.63.38,3.97.53-.72-.97-1.29-2.12-2.19-2.88-1.94-1.63-4.19-2.92-6.05-4.63-1.43-1.32-3.11-1.68-4.7-1.44-1.54.24-2.06-.39-2.33-1.48-.38-1.53-.41-3.16-.84-4.67-.32-1.14-.14-1.84.87-2.37.33.03.66.06.99.09.28.1.56.2.84.29.08-.05.14-.04.19.04.27.1.54.21.81.31Z"/>
          <path class="cls-4" d="m126.07,33.28c.23.43.67.86.67,1.3.15,7.36.26,14.71.35,22.07,0,.5-.22.99-.34,1.49-.12.02-.23.03-.35.05-1.71,0-3.42,0-5.13,0-.23.49-.57.97-.66,1.49-.19,1.06-.25,2.14-.37,3.21-1.7-2.49-3.95-4.31-6.83-5.23-6.63-2.12-13.6.96-15.94,7.6-2.66,7.51,2.7,14.74,9.06,16.11,5.57,1.19,11.08-1.03,13.79-6.6.04-.09.16-.14.25-.21.12.58.35,1.15.35,1.73.03,5.16.03,10.31.03,15.47,0,0-.08,0-.08,0-10.06-.01-20.13-.02-30.19-.03-.32-.42-.65-.85-.97-1.27,0-.57,0-1.15,0-1.72.02-.13.03-.25.05-.38-.06-1.71-.11-3.42-.17-5.13,0-.58,0-1.16,0-1.74,0-.22,0-.44,0-.67,0-1.61,0-3.22,0-4.84.47-3.97.57-8.02,1.5-11.88,1.73-7.18,5.26-13.47,10.48-18.81,3.22-3.3,6.88-5.98,10.94-8.06,4.25-2.18,8.84-3.35,13.57-3.95Z"/>
          <path class="cls-20" d="m120.88,92.12c.03,4.81.1,9.62.04,14.43,0,.67-.59,1.43-1.09,1.97-2.94,3.15-6.13,6.08-8.86,9.4-3.69,4.47-7.27,9.08-10.46,13.91-2.59,3.93-4.55,8.27-6.8,12.43-.13.23-.38.4-.58.6-.13-.02-.25-.05-.38-.07-.12-4.05-.17-8.11-.39-12.16-.23-4.24-.64-8.46-.96-12.69-.14-1.92-.28-3.85-.38-5.78-.24-4.71-.48-9.42-.7-14.13-.12-2.61-.2-5.22-.29-7.82,10.28-.02,20.56-.05,30.85-.07Z"/>
          <path class="cls-31" d="m151.23,160.91c8.46.87,17.05,7.24,18.86,16.5-18.06.01-36.13.02-54.19.03-.74,0-1.48.07-2.22.1-.2,0-.41,0-.61,0-.59-.02-1.18-.04-1.78-.06-.12-2.28.99-4.18,2.09-5.98,2.96-4.82,7.18-8.17,12.58-9.9,1.49-.48,3.07-.67,4.61-.99.47-.03.94-.06,1.41-.08.2,0,.4-.01.6-.02.26,0,.52-.01.79-.02.31,0,.62,0,.93,0,1.18,0,2.36,0,3.54,0,.88,0,1.77,0,2.65,0,.61,0,1.21,0,1.82,0,1.34,0,2.68,0,4.03,0,1.63.14,3.26.28,4.89.42Z"/>
          <path class="cls-4" d="m212.38,91.71c-5.27.02-10.55.05-15.82.07-.1-.11-.2-.22-.29-.33-.1-.12-.19-.23-.29-.35-.01-6.18-.01-12.36-.05-18.54,0-.71-.22-1.41-.33-2.12-.5-8.75-3.69-16.55-8.52-23.73-2.99-4.44-6.77-8.15-11.11-11.3-.42-.31-.78-.72-1.16-1.08.08-.12.15-.25.23-.37.95.35,1.91.67,2.84,1.07,4.99,2.12,9.74,4.6,14.16,7.83,7.79,5.7,13.35,13.05,16.86,21.96,2.05,5.21,3.56,10.59,3.54,16.27.08.13.15.26.23.39.05.1.09.21.1.33-.03,3.1-.06,6.2-.1,9.29-.09.2-.19.4-.28.6Z"/>
          <path class="cls-8" d="m158.21,77.36c1.74.37,1.5,1.97,1.5,3.02,0,2.22.48,4.25,1.52,6.16.18.34.7.8.97.74,2.49-.49,3.94,1.52,5.86,2.37,1.04.46,2.02,1.04,3.33,1.73,0-.05.18.38.07.71-.74,2.21.88,2.47,2.31,2.79,2.2.49,2.43.82,2.56,3.09.07,1.22.49,2.41.71,3.63.14.78.27,1.57.27,2.36,0,1.23.04,2.37,1.2,3.21.34.25.37.91.54,1.38.23.61.47,1.21.89,2.29,1.6-1.44,2.9-2.62,4.45-4.02.25,2.11.47,3.96.69,5.8.22,0,.44.01.66.02.19-2.07.55-4.14.5-6.21-.05-2.03.24-2.92,2.14-3.5,0,1.86.04,3.64,0,5.42-.1,3.25-.22,6.5-.41,9.74-.05.87-.43,1.71-.63,2.58-.15.66-.29,1.32-.37,1.99-.08.7-.09,1.41-.17,2.62-.75-.81-1.14-1.23-1.53-1.66-1.39.64-2.85.13-3.81-1.61-.56-1.02-1.21-1.31-2.31-1.33-.8-.02-1.6-.44-2.4-.68-.88-.26-1.85-.38-2.63-.82-.59-.34-1.31-1.07-1.33-1.66-.06-1.5.08-1.5-1.23-2.5-1,1.57-1.02,1.5-2.24.12-.75-.85-1.81-1.43-2.74-2.13.16-.21.33-.42.49-.63h1.5c.09-.16.19-.31.28-.47-1.18-.95-2.37-1.9-3.55-2.86l-.33.22c.17.53.35,1.06.63,1.92-1.27-.84-2.23-1.58-3.29-2.14-.54-.29-1.28-1.34-1.86.02-.68-.49-1.36-.97-2.03-1.46-.08-.11-.17-.22-.25-.33-.03-5.13-.08-10.25-.08-15.38,0-4.84.07-9.68.11-14.53Zm11.33,14.12c-.63.72-1.05,1.2-1.47,1.68.46.32.94.91,1.36.87.37-.04.83-.74.95-1.23.07-.28-.43-.71-.84-1.32Z"/>
          <path class="cls-8" d="m160.52,34.62c-1.01.53-1.2,1.23-.87,2.37.43,1.51.46,3.14.84,4.67.27,1.09.8,1.71,2.33,1.48,1.59-.24,3.27.12,4.7,1.44,1.86,1.72,4.11,3,6.05,4.63.9.76,1.47,1.9,2.19,2.88-1.33-.15-2.8,0-3.97-.53-1.54-.69-2.15-.81-2.75.42-.39.8-.12,1.26.7,1.28,3.26.1,5.48,1.81,7.27,4.39.58.84,2.19.87,2.04,2.4-.66-.41-1.34-.8-1.98-1.25-6.68-4.74-15.61-.75-18.19,5.24-.23-.05-.46-.1-.69-.15,0-9.94,0-19.89,0-29.83.34-.05.67-.09,1.01-.14.44.23.88.46,1.32.69Z"/>
          <path class="cls-31" d="m74.51,62.22c2.41-6.57,6.56-11.96,11.56-16.72,3.08-2.93,6.52-5.41,10.42-7.18.45-.2.94-.32,1.41-.47.28.59.55,1.17.83,1.76-.3.32-.6.63-.9.95-.09.09-.18.17-.26.26-3.67,4.21-7.07,8.6-9.39,13.74-.5,1.11-1.06,2.18-1.59,3.27-.54-1.59-1.68-2.04-3.29-1.93-3.54.26-5.8,2.2-7.4,5.21-.26.48-.91.75-1.38,1.12Z"/>
          <path class="cls-20" d="m170.03,75.64c-3.43,0-6.45-3.03-6.46-6.51-.01-3.42,3.19-6.56,6.69-6.56,3.75,0,6.73,2.84,6.72,6.47-.01,3.83-2.79,6.91-6.94,6.61Z"/>
          <path class="cls-31" d="m109.22,62.87c3.61-.34,6.62,2.46,6.65,6.42.02,4.11-3.59,6.67-6.48,6.68-3.6.02-6.71-3.19-6.7-6.85.01-3.76,2.61-6.25,6.53-6.25Z"/>
          <path class="cls-4" d="m168.34,189.13c-3.85,4.94-7.24,6.19-12.94,4.68-2.72-.72-4.96-3-5.9-6.02,5.39-.02,10.77-.04,16.16-.07,1.13.13,2.26.26,3.39.39,0,0,.01,0,.01,0-.24.34-.48.69-.72,1.03Z"/>
          <path class="cls-29" d="m212.65,152.35c0-13.65,0-27.29,0-40.94,0-6.08,0-12.16,0-18.24.07-.04.12-.03.17.04.09.6.26,1.21.26,1.81.02,24.75.02,49.51,0,74.26,0,.67-.14,1.34-.21,2.02-.04-.79-.12-1.59-.12-2.38-.04-5.52-.07-11.04-.11-16.56Z"/>
          <path class="cls-13" d="m113.67,177.55c.74-.04,1.48-.1,2.22-.1,18.06-.02,36.13-.02,54.19-.03-.52.13-1.04.38-1.56.38-17.79.02-35.58.01-53.37,0-.5,0-.99-.15-1.49-.24Z"/>
          <path class="cls-27" d="m92.06,171.27c.02,1.65.06,3.31.06,4.96,0,16.53,0,33.06,0,49.59,0,.62-.08,1.25-.12,1.87-.1-.54-.28-1.09-.28-1.63-.01-17.61-.01-35.23,0-52.84,0-.65.23-1.3.35-1.95Z"/>
          <path class="cls-25" d="m86.42,164c0-1,0-2,0-3.01,0-.38,0-.75,0-1.13,0-9.03.02-18.06.03-27.09.04-.71.08-1.41.11-2.12.11.54.3,1.09.3,1.63.02,12.74.01,25.49,0,38.23,0,.49-.18.98-.28,1.47-.05-2.66-.11-5.32-.16-7.98Z"/>
          <path class="cls-7" d="m120.88,92.12c-10.28.02-20.56.05-30.85.07-.06-.1-.07-.21-.04-.32.23-.05.46-.1.68-.15,10.06.01,20.13.02,30.19.03,0,.12,0,.25,0,.37Z"/>
          <path class="cls-27" d="m190.12,198.79c-.04-2.27-.11-4.55-.13-6.82-.04-6.89-.05-13.79-.07-20.68.03-.11.06-.23.09-.34.13.47.38.93.38,1.4.02,8.44.02,16.89,0,25.33,0,.37-.18.74-.27,1.12Z"/>
          <path class="cls-30" d="m152.31,88.73c-.05-1.76-.13-3.53-.14-5.29-.01-6.74,0-13.49.02-20.23,0-.56.08-1.13.13-1.69.08.43.24.87.24,1.3.01,8.21.01,16.41,0,24.62,0,.43-.16.87-.24,1.3Z"/>
          <path class="cls-26" d="m195.59,70.44c.12.71.33,1.41.33,2.12.04,6.18.04,12.36.05,18.54,0,.12,0,.25.01.37-.08.07-.15.06-.22-.01-.07-.27-.21-.53-.21-.8,0-6.74.02-13.49.03-20.23Z"/>
          <path class="cls-32" d="m98.72,39.61c-.27-.59-.55-1.17-.83-1.76,1.36-.59,2.72-1.17,4.08-1.76.12.12.24.25.37.37-1.21,1.05-2.42,2.1-3.63,3.14Z"/>
          <path class="cls-27" d="m120.96,91.75c0-5.16,0-10.31-.03-15.47,0-.58-.23-1.16-.35-1.73.07-.3.14-.6.33-1.38.22.78.38,1.07.38,1.37,0,5.43,0,10.86-.02,16.3,0,.31-.2.61-.31.92Z"/>
          <path class="cls-19" d="m212.65,152.35c.03,5.52.06,11.04.11,16.56,0,.79.08,1.59.12,2.38-.15.11-.3.22-.45.33,0-5.93-.02-11.86,0-17.8,0-.49.15-.99.23-1.48Z"/>
          <path class="cls-27" d="m189.99,244.5c.04-5.84.08-11.68.12-17.52.1.43.27.86.28,1.28.02,4.95.02,9.91,0,14.86,0,.46-.26.91-.39,1.37Z"/>
          <path class="cls-30" d="m152.51,110.47c-.09-.13-.27-.27-.27-.4.02-5.52.05-11.04.08-16.57.08.26.24.52.24.78,0,5.39-.03,10.79-.05,16.18Z"/>
          <path class="cls-26" d="m165.66,187.73c-5.39.02-10.77.04-16.16.07.11-.15.22-.3.33-.45,3.78.02,7.56.03,11.33.05,1.49.02,2.98.04,4.47.06,0,.09.01.18.03.27Z"/>
          <path class="cls-6" d="m196.22,171.72c5.4,0,10.81,0,16.21,0-.55.09-1.09.25-1.64.25-4.37.02-8.74.01-13.11-.01-.49,0-.98-.16-1.47-.24Z"/>
          <path class="cls-28" d="m83.71,82.48c0-.32,0-.64,0-.96,0-.37,0-.74,0-1.1.06-2.62.11-5.24.17-7.87.09.32.26.64.26.95,0,4.85-.02,9.71-.04,14.56-.09-.02-.18-.05-.27-.07-.03-1.58-.07-3.17-.1-4.75,0-.25,0-.5,0-.76Z"/>
          <path class="cls-28" d="m120.26,62.88c.11-1.07.17-2.15.37-3.21.09-.52.43-.99.66-1.49,0,1.86,0,3.71,0,5.57l-.62.06-.41-.93Z"/>
          <path class="cls-28" d="m161.16,187.39c-3.78-.02-7.56-.03-11.33-.05,3.78.02,7.56.03,11.33.05Z"/>
          <path class="cls-26" d="m179.03,244.58c3.65-.04,7.29-.09,10.94-.13-.1.12-.2.36-.3.35-3.55-.06-7.09-.15-10.63-.23Z"/>
          <path class="cls-27" d="m126.42,58.19c.12-.02.23-.03.35-.05-.01,3.31-.03,6.63-.04,9.94-.1-1.66-.23-3.33-.28-4.99-.05-1.63-.02-3.27-.03-4.9Z"/>
          <path class="cls-26" d="m212.66,91.11c.03-3.1.06-6.2.1-9.29.04,3.22.07,6.45.11,9.68-.07-.13-.14-.25-.21-.38Z"/>
          <path class="cls-24" d="m86.42,164c.05,2.66.11,5.32.16,7.98-.02.23-.03.46-.05.68-.09-.07-.18-.14-.27-.21.05-2.82.11-5.64.16-8.45Z"/>
          <path class="cls-27" d="m126.74,84.57c0,2.87,0,5.74,0,8.62,0-2.87,0-5.74,0-8.62Z"/>
          <path class="cls-27" d="m126.73,94.2c0,2.53,0,5.06,0,7.59,0-2.53,0-5.06,0-7.59Z"/>
          <path class="cls-27" d="m126.73,102.8c.03,2.29.06,4.57.06,6.86,0,.22-.25.44-.38.66.11-2.51.21-5.01.32-7.52Z"/>
          <path class="cls-28" d="m165.66,187.73c-.02-.09-.03-.18-.03-.27,1.04-.1,2.08-.22,3.13-.25.09,0,.2.59.29.91-1.13-.13-2.26-.26-3.39-.39Z"/>
          <path class="cls-13" d="m84.46,96.98c-.15-1.64-.31-3.29-.46-4.93.15,1.64.31,3.29.46,4.93Z"/>
          <path class="cls-13" d="m151.23,160.91c-1.63-.14-3.26-.28-4.89-.42,1.66-.15,3.36-.86,4.89.42Z"/>
          <path class="cls-16" d="m189.2,146.08c.24-.55.48-1.09.72-1.64.05.96.1,1.92.14,2.89-.15.02-.31.04-.46.06-.13-.43-.27-.87-.4-1.3Z"/>
          <path class="cls-27" d="m89.58,75.97c0,1.61,0,3.22,0,4.84,0-1.61,0-3.22,0-4.84Z"/>
          <path class="cls-14" d="m92.75,144.78c.13.02.25.05.38.07-.03.6-.06,1.2-.08,1.79l-.64-.05c.11-.61.23-1.21.34-1.82Z"/>
          <path class="cls-27" d="m126.72,24.72c0,1.38,0,2.76,0,4.15,0-1.38,0-2.76,0-4.15Z"/>
          <path class="cls-8" d="m159.25,75.06c-.34.19-.68.39-1.03.58-.01-.45-.03-.89-.04-1.34.23-.05.47-.1.7-.15.12.3.24.6.37.9Z"/>
          <path class="cls-13" d="m83.82,87.99c.09.03.18.05.27.07-.04,1.15-.09,2.29-.13,3.44-.05-1.17-.09-2.34-.14-3.51Z"/>
          <path class="cls-13" d="m137.83,160.49c-1.18,0-2.36,0-3.54,0,1.18,0,2.36,0,3.54,0Z"/>
          <path class="cls-9" d="m90.68,91.71c-.23.05-.46.1-.68.15-.1-.47-.19-.95-.29-1.42.32.42.65.85.97,1.27Z"/>
          <path class="cls-30" d="m152.32,92.17c0-.93,0-1.87,0-2.8,0,.93,0,1.87,0,2.8Z"/>
          <path class="cls-19" d="m195.92,166.79c0,.8,0,1.61,0,2.41,0-.8,0-1.61,0-2.41Z"/>
          <path class="cls-24" d="m86.56,130.65c-.04.71-.08,1.41-.11,2.12-.07-.83-.14-1.66-.21-2.48.11.12.21.24.32.36Z"/>
          <path class="cls-16" d="m158.19,63.9c.23.05.46.1.69.15-.14.35-.27.7-.41,1.05-.09,0-.19-.02-.28-.02v-1.18Z"/>
          <path class="cls-30" d="m152.31,50.55c0-.7,0-1.41,0-2.11,0,.7,0,1.41,0,2.11Z"/>
          <path class="cls-16" d="m158.89,74.16c-.23.05-.47.1-.7.15-.04-.37-.08-.73-.12-1.1.12-.03.25-.07.37-.1.15.35.3.7.45,1.05Z"/>
          <path class="cls-16" d="m189.94,126.93c-.82-.37-.82-.74,0-1.11,0,.37,0,.74,0,1.11Z"/>
          <path class="cls-27" d="m126.74,79.76c0,.58,0,1.16,0,1.73,0-.58,0-1.16,0-1.73Z"/>
          <path class="cls-27" d="m126.74,74.6c0,.58,0,1.16,0,1.74,0-.58,0-1.16,0-1.74Z"/>
          <path class="cls-13" d="m142.3,160.49c-.61,0-1.21,0-1.82,0,.61,0,1.21,0,1.82,0Z"/>
          <path class="cls-28" d="m168.34,189.13c.24-.34.48-.69.72-1.03-.24.34-.48.69-.72,1.03Z"/>
          <path class="cls-27" d="m126.73,69.44c0,.58,0,1.16,0,1.74,0-.58,0-1.16,0-1.74Z"/>
          <path class="cls-27" d="m89.58,81.47c0,.58,0,1.16,0,1.74,0-.58,0-1.16,0-1.74Z"/>
          <path class="cls-13" d="m111.28,177.49c.59.02,1.18.04,1.78.06-.59-.02-1.18-.04-1.78-.06Z"/>
          <path class="cls-30" d="m152.32,58.81c0-.48,0-.95,0-1.43,0,.48,0,.95,0,1.43Z"/>
          <path class="cls-27" d="m92.41,227.96c.11.04.22.07.33.11-.15.17-.31.34-.46.51-.08-.18-.16-.36-.24-.54.12-.03.25-.05.37-.08Z"/>
          <path class="cls-27" d="m126.72,30.22c0,.47,0,.93,0,1.4,0-.47,0-.93,0-1.4Z"/>
          <path class="cls-13" d="m131.97,160.53c-.47.03-.94.06-1.41.08.47-.03.94-.06,1.41-.08Z"/>
          <path class="cls-19" d="m195.93,154.41c0,.46,0,.92,0,1.38,0-.46,0-.92,0-1.38Z"/>
          <path class="cls-30" d="m152.31,55.02c0-.36,0-.72,0-1.08,0,.36,0,.72,0,1.08Z"/>
          <path class="cls-17" d="m92.14,170.22c.01.36.03.71.04,1.07-.01-.36-.03-.71-.04-1.07Z"/>
          <path class="cls-16" d="m159.2,33.93c-.34.05-.67.09-1.01.14.34-.05.67-.09,1.01-.14Z"/>
          <path class="cls-28" d="m86.64,174.35c0-.34,0-.68,0-1.02,0,.34,0,.68,0,1.02Z"/>
          <path class="cls-19" d="m195.92,170.92c.1.24.21.47.31.71-.1-.24-.21-.47-.31-.71Z"/>
          <path class="cls-8" d="m163.35,35.35c-.27-.1-.54-.21-.81-.31.27.1.54.21.81.31Z"/>
          <path class="cls-22" d="m158.44,73.11c-.12.03-.25.07-.37.1.04-.15.08-.3.12-.44.08.11.17.23.25.34Z"/>
          <path class="cls-9" d="m196.26,91.45c.1.11.2.22.29.33-.21.05-.41.1-.62.15-.05-.15-.11-.31-.16-.46.07.07.14.08.22.01.09,0,.18-.01.28-.03Z"/>
          <path class="cls-8" d="m162.35,35c-.28-.1-.56-.2-.84-.29.28.1.56.2.84.29Z"/>
          <path class="cls-15" d="m212.66,91.11c.07.13.14.25.21.38-.05.12-.1.24-.15.36-.11-.05-.22-.1-.34-.14.09-.2.19-.4.28-.6Z"/>
          <path class="cls-13" d="m133.36,160.5c-.26,0-.52.01-.79.02.26,0,.52-.01.79-.02Z"/>
          <path class="cls-17" d="m89.75,88.34c-.02.13-.03.25-.05.38.02-.13.03-.25.05-.38Z"/>
          <path class="cls-19" d="m212.69,92.5c-.04-.09-.09-.17-.11-.26,0-.02.08-.06.13-.09,0,.12,0,.23-.01.35Z"/>
          <path class="cls-32" d="m97.55,40.81c.09-.09.18-.17.26-.26-.09.09-.18.17-.26.26Z"/>
          <path class="cls-17" d="m190.01,170.95c-.03.11-.06.23-.09.34-.06-.14-.12-.28-.18-.41.09.02.18.05.27.07Z"/>
          <path class="cls-13" d="m84.49,97.32c-.05-.11-.06-.22-.03-.33.05.07.1.14.13.22,0,.02-.06.07-.1.11Z"/>
          <path class="cls-16" d="m158.18,107.26c.08.11.17.22.25.33-.08-.11-.17-.22-.25-.33Z"/>
          <path class="cls-17" d="m92.41,227.96c-.12.03-.25.05-.37.08.02-.13.05-.25.07-.38.1.1.2.2.3.3Z"/>
          <path class="cls-30" d="m152.93,111.02c-.11-.1-.23-.21-.34-.31.11.1.23.21.34.31Z"/>
          <path class="cls-15" d="m212.65,81.49c-.08-.13-.15-.26-.23-.39.08.13.15.26.23.39Z"/>
          <path class="cls-31" d="m72.84,66.01c.55-1.26,1.11-2.52,1.66-3.78-.18,1.43-.09,2.97-1.66,3.78Z"/>
          <path class="cls-31" d="m72.09,68.41c.2-.42.4-.84.59-1.26-.2.42-.4.84-.59,1.26Z"/>
          <path class="cls-24" d="m69.55,82.88c.05-.35.09-.7.14-1.06-.05.35-.09.7-.14,1.06Z"/>
          <path class="cls-24" d="m86.42,159.87c0,.38,0,.75,0,1.13,0-.38,0-.75,0-1.13Z"/>
          <path class="cls-24" d="m83.7,80.42c0,.37,0,.74,0,1.1,0-.37,0-.74,0-1.1Z"/>
          <path class="cls-24" d="m83.71,82.48c0,.25,0,.5,0,.76,0-.25,0-.5,0-.76Z"/>
          <path class="cls-8" d="m63.24,161.29c-.26-.47-.72-.93-.74-1.41-.08-2.29-.04-4.58-.04-6.87,0-7.7.03-15.4-.02-23.11-.02-2.79-.32-5.58-.3-8.37.05-7.26.2-14.52.34-21.77,0-.25.22-.49.34-.74.16-.01.33-.02.49-.03.02,19.98.05,39.95.06,59.93,0,.79-.1,1.59-.15,2.38Z"/>
          <path class="cls-14" d="m63.33,98.99c-.16.01-.33.02-.49.03,0-1.47-.05-2.93,0-4.4.02-.48.33-.95.51-1.42,0,1.93-.02,3.85-.02,5.78Z"/>
          <path class="cls-14" d="m63.4,166.83c0-.6,0-1.2,0-1.8,0,.6,0,1.2,0,1.8Z"/>
          <path class="cls-14" d="m63.39,168.9c0-.26,0-.52,0-.78,0,.26,0,.52,0,.78Z"/>
          <path class="cls-19" d="m212.65,93.17c0,6.08,0,12.16,0,18.24-.08-.44-.23-.88-.23-1.31-.02-5.2-.02-10.41,0-15.61,0-.44.15-.88.23-1.32Z"/>
          <path class="cls-15" d="m196.26,91.45c-.09.01-.18.02-.28.03,0-.12,0-.25-.01-.37.1.12.19.23.29.35Z"/>
          <path class="cls-20" d="m169.54,91.47c.41.61.91,1.04.84,1.32-.12.49-.58,1.19-.95,1.23-.42.04-.9-.55-1.36-.87.42-.48.84-.96,1.47-1.68Z"/>
        </g>
      </g>
      <circle class="cls-2" cx="138.2" cy="138.2" r="135.2"/>
    </g>
  </g>
</svg>