<?xml version="1.0" encoding="UTF-8"?>
<svg id="Layer_2" data-name="Layer 2" xmlns="http://www.w3.org/2000/svg" viewBox="0 0 268.31 268.31">
  <defs>
    <style>
      .cls-1 {
        stroke-width: 5.01px;
      }

      .cls-1, .cls-2 {
        fill: none;
        stroke: #231f20;
        stroke-linecap: round;
        stroke-linejoin: round;
      }

      .cls-2 {
        stroke-width: 6.43px;
      }
    </style>
  </defs>
  <g id="Layer_1-2" data-name="Layer 1">
    <g>
      <path class="cls-2" d="m33.12,50.87C57.13,21.77,93.48,3.22,134.16,3.22c43.83,0,82.62,21.53,106.39,54.59,1.57,2.18,3.07,4.41,4.5,6.68,12.7,20.18,20.05,44.06,20.05,69.66,0,72.32-58.62,130.94-130.94,130.94S3.22,206.47,3.22,134.16c0-22.52,5.69-43.72,15.7-62.23"/>
      <path class="cls-1" d="m248.02,70.69c-6.96-.53-14.62-1.75-19-4.43"/>
      <path class="cls-1" d="m33.16,61.53c-4.21,7.37-30.01,20.53-26.32,15.79,3.69-4.74-1.05-20.53,14.74-24.22,15.79-3.69,46.33-2.11,57.91,4.21,11.58,6.32,17.9-2.11,17.9-2.11-.53-3.16,23.69-8.95,34.22-1.05,0,0,23.69-7.37,32.64,2.11,8.95,9.48,14.74,8.42,17.9,2.63,3.16-5.79,31.59-11.06,41.59-5.79,6.17,3.25,10.94,3.49,16.03,3.94"/>
      <path class="cls-1" d="m23.16,71.53s8.95,8.42,16.32,12.11c7.37,3.69,6.84,4.74,14.74,15.79,7.9,11.06,11.58,7.37,11.58,7.37"/>
      <path class="cls-1" d="m239.02,69.95s-7.37,13.69-17.37,19.48c-10,5.79-11.58,12.64-15.79,18.95-4.21,6.32-6.84,7.9-6.84,7.9"/>
      <path class="cls-1" d="m70.02,107.86s-8.42,7.9-17.9,5.79"/>
      <path class="cls-1" d="m43.17,124.18s14.74,6.84,22.11,0"/>
      <path class="cls-1" d="m28.95,141.55s8.95-5.26,17.37-2.63c8.42,2.63,13.69,1.58,13.69,1.58"/>
      <path class="cls-1" d="m22.63,152.61s16.85-2.63,22.64,4.21c5.79,6.84,15.79,16.85,25.8,13.16"/>
      <path class="cls-1" d="m190.05,114.18s8.42,9.48,18.43,9.48"/>
      <path class="cls-1" d="m196.37,131.55s11.06,9.48,23.16,6.32"/>
      <path class="cls-1" d="m86.86,163.14c27.38-40.01,59.49-30.54,59.49-30.54,0,0,31.59-11.06,51.59,22.64,0,0,5.26,10,6.84,16.85"/>
      <path class="cls-1" d="m76.86,98.38s21.32.81,43.7-21.59"/>
      <path class="cls-1" d="m162.15,74.16c2.63-1.05,26.85,1.05,33.17,27.9"/>
      <circle class="cls-1" cx="106.34" cy="107.33" r="7.9"/>
      <circle class="cls-1" cx="168.47" cy="107.33" r="7.9"/>
      <path class="cls-1" d="m152.15,143.66s-15.79-.53-20.53,10,9.48,21.59,18.95,22.64c9.48,1.05,23.16-6.32,24.22-18.43,1.05-12.11-13.16-16.85-22.64-14.21Z"/>
      <path class="cls-1" d="m138.65,158.73s12.81-2.23,11.53,9.33"/>
      <path class="cls-1" d="m166.89,155.24s-8.95-1.58-9.48,12.64"/>
      <path class="cls-1" d="m101.61,155.24s-14.74,15.79-14.74,32.11-6.32,25.8-9.48,27.9"/>
      <path class="cls-1" d="m100.03,184.72s-10,26.32-6.32,50.54"/>
      <path class="cls-1" d="m191.63,170.51s10.53,12.64,9.48,30.01c-1.05,17.37,8.95,16.85,8.95,16.85"/>
      <path class="cls-1" d="m186.9,186.83s6.32,26.32,1.05,50.54"/>
      <path class="cls-1" d="m140.04,182.09s-11.06,13.69-29.48,18.95"/>
      <path class="cls-1" d="m155.83,182.62c1.58,1.35,7.9,11.23,23.69,15.27"/>
      <path class="cls-1" d="m77.39,175.77s-.53,24.22-18.95,32.11"/>
      <path class="cls-1" d="m118.98,212.1c0,1.58-2.63,21.06,2.63,31.06"/>
      <path class="cls-1" d="m200.06,145.24s12.11,18.43,24.74,18.95"/>
      <path class="cls-1" d="m141.62,210.52c.53,1.58,4.21,21.59,1.58,34.22"/>
      <path class="cls-1" d="m164.78,208.94s1.05,21.59,5.26,34.22"/>
      <path class="cls-1" d="m70.69,192.53c-3.95-.99-30.64,6.92-38.55,24.71"/>
      <path class="cls-1" d="m134.89,189.08c.6,0,13.51,5.56,27.02.4"/>
    </g>
  </g>
</svg>